<svg width="696" height="744" viewBox="0 0 696 744" fill="none" xmlns="http://www.w3.org/2000/svg">
<path d="M0 0L180.108 743H518.866L696 0H0Z" fill="url(#paint0_linear)" fill-opacity="0.3"/>
<path d="M203.666 394.925H154.546C148.501 394.925 143.589 390.019 143.589 383.981V335.298" stroke="#2B496D" stroke-miterlimit="10" stroke-dasharray="4 4"/>
<path d="M133.387 323.222H131.75C131.498 322.216 131.12 321.209 130.616 320.454L131.75 319.322C131.876 319.196 131.876 318.945 131.75 318.693L130.239 317.184C130.113 317.058 129.861 317.058 129.609 317.184L128.601 318.316C127.72 317.813 126.838 317.31 125.83 317.184V315.548C125.83 315.297 125.704 315.171 125.452 315.171H123.437C123.185 315.171 123.059 315.297 123.059 315.548V317.184C122.052 317.435 121.044 317.813 120.289 318.316L118.903 317.184C118.777 317.058 118.525 317.058 118.273 317.184L116.762 318.693C116.636 318.819 116.636 319.071 116.762 319.322L117.896 320.454C117.392 321.335 116.888 322.216 116.762 323.222H115.125C114.873 323.222 114.747 323.348 114.747 323.599V325.612C114.747 325.864 114.873 325.989 115.125 325.989H116.762C117.014 326.996 117.392 328.002 117.896 328.757L116.762 329.889C116.636 330.015 116.636 330.266 116.762 330.518L118.273 332.028C118.399 332.153 118.651 332.153 118.903 332.028L120.037 330.895C120.918 331.399 121.8 331.902 122.808 332.028V333.663C122.808 333.915 122.933 334.04 123.185 334.04H125.201C125.452 334.04 125.578 333.915 125.578 333.663V332.028C126.586 331.776 127.594 331.399 128.349 330.895L129.483 332.028C129.609 332.153 129.861 332.153 130.113 332.028L131.624 330.518C131.75 330.392 131.75 330.141 131.624 329.889L130.49 328.757C130.994 327.876 131.498 326.996 131.624 325.989H133.261C133.513 325.989 133.639 325.864 133.639 325.612V323.599C133.765 323.348 133.639 323.222 133.387 323.222ZM127.72 324.857C127.594 326.493 126.208 327.876 124.571 328.002C122.43 328.128 120.666 326.367 120.918 324.354C121.044 322.719 122.43 321.335 124.067 321.209C126.208 320.958 127.845 322.719 127.72 324.857Z" fill="#244F72"/>
<path d="M176.336 309.51H172.935C172.557 307.372 171.676 305.359 170.416 303.598L172.809 301.208C173.187 300.83 173.187 300.327 172.809 299.95L169.66 296.805C169.283 296.428 168.779 296.428 168.401 296.805L166.008 299.195C164.245 298.063 162.229 297.182 160.088 296.679V293.283C160.088 292.78 159.711 292.402 159.207 292.402H154.799C154.295 292.402 153.917 292.78 153.917 293.283V296.679C151.776 297.057 149.761 297.937 147.997 299.195L145.604 296.805C145.226 296.428 144.723 296.428 144.345 296.805L141.196 299.95C140.818 300.327 140.818 300.83 141.196 301.208L143.589 303.598C142.456 305.359 141.574 307.372 141.07 309.51H137.669C137.166 309.51 136.788 309.888 136.788 310.391V314.794C136.788 315.297 137.166 315.674 137.669 315.674H141.196C141.574 317.813 142.456 319.825 143.715 321.587L141.196 323.977C140.818 324.354 140.818 324.857 141.196 325.235L144.345 328.38C144.723 328.757 145.226 328.757 145.604 328.38L147.997 325.989C149.761 327.122 151.776 328.002 153.917 328.505V331.902C153.917 332.405 154.295 332.782 154.799 332.782H159.207C159.711 332.782 160.088 332.405 160.088 331.902V328.505C162.229 328.128 164.245 327.247 166.008 325.989L168.401 328.38C168.779 328.757 169.283 328.757 169.66 328.38L172.809 325.235C173.187 324.857 173.187 324.354 172.809 323.977L170.416 321.587C171.55 319.825 172.431 317.813 172.935 315.674H176.336C176.84 315.674 177.217 315.297 177.217 314.794V310.391C177.091 309.888 176.714 309.51 176.336 309.51ZM164.371 313.158C164.119 316.681 161.222 319.574 157.695 319.825C153.161 320.203 149.509 316.429 149.761 311.9C150.012 308.378 152.909 305.485 156.436 305.233C160.97 304.982 164.748 308.63 164.371 313.158Z" fill="#244F72"/>
<path d="M135.15 293.408H133.135C132.883 292.151 132.38 291.018 131.75 289.886L133.135 288.502C133.387 288.251 133.387 287.999 133.135 287.748L131.372 285.987C131.12 285.735 130.868 285.735 130.616 285.987L129.231 287.37C128.223 286.616 126.964 286.238 125.704 285.987V283.974C125.704 283.722 125.452 283.471 125.201 283.471H122.682C122.43 283.471 122.178 283.722 122.178 283.974V285.987C120.918 286.238 119.785 286.741 118.651 287.37L117.266 285.987C117.014 285.735 116.762 285.735 116.51 285.987L114.747 287.874C114.495 288.125 114.495 288.377 114.747 288.628L116.132 290.012C115.377 291.018 114.999 292.276 114.747 293.534H112.732C112.48 293.534 112.228 293.786 112.228 294.037V296.553C112.228 296.805 112.48 297.057 112.732 297.057H114.747C114.999 298.314 115.502 299.447 116.132 300.579L114.747 301.963C114.495 302.214 114.495 302.466 114.747 302.717L116.51 304.478C116.762 304.73 117.014 304.73 117.266 304.478L118.651 303.095C119.659 303.849 120.918 304.227 122.178 304.478V306.491C122.178 306.743 122.43 306.994 122.682 306.994H125.201C125.452 306.994 125.704 306.743 125.704 306.491V304.478C126.964 304.227 128.097 303.724 129.231 303.095L130.616 304.478C130.868 304.73 131.12 304.73 131.372 304.478L133.135 302.717C133.387 302.466 133.387 302.214 133.135 301.963L131.75 300.579C132.506 299.572 132.883 298.314 133.135 297.057H135.15C135.402 297.057 135.654 296.805 135.654 296.553V294.037C135.654 293.66 135.402 293.408 135.15 293.408ZM128.223 295.547C128.097 297.56 126.334 299.321 124.319 299.447C121.674 299.698 119.533 297.434 119.659 294.792C119.785 292.78 121.548 291.018 123.563 290.893C126.208 290.767 128.349 292.905 128.223 295.547Z" fill="#244F72"/>
<path d="M615.267 668.655C615.141 665.636 613.881 662.743 613.755 659.724C613.629 657.711 614.133 655.824 614.889 654.063C615.267 653.182 615.77 652.428 616.274 651.673C616.778 650.918 617.408 650.163 618.164 649.534C619.549 648.276 621.186 647.27 622.95 646.389C623.831 646.012 624.713 645.509 625.594 645.257C626.476 644.88 627.358 644.754 628.239 644.502C631.766 643.622 635.418 642.616 638.693 641.232C640.33 640.477 641.842 639.596 643.101 638.339C643.731 637.71 644.361 637.081 644.865 636.326C645.368 635.571 645.872 634.816 646.25 633.936C647.384 631.294 647.51 628.401 647.635 625.382C647.635 622.363 647.761 619.469 648.391 616.576C648.895 614.689 649.651 612.928 650.658 611.418C651.162 610.664 651.666 609.783 652.296 609.154C652.925 608.525 653.555 607.77 654.311 607.141C657.082 604.625 660.482 602.487 663.883 601.229C665.646 600.6 667.409 599.971 669.047 599.342C669.928 598.965 670.81 598.713 671.692 598.462C672.573 598.21 673.455 597.958 674.337 597.707C676.1 597.078 677.863 596.575 679.501 595.82C681.138 595.191 682.901 594.436 684.413 593.43C686.05 592.549 687.561 591.165 689.073 589.656C690.584 588.146 691.969 586.511 692.977 584.624C695.244 580.976 696.504 576.699 695.622 573.051C694.74 569.277 691.592 566.006 687.561 563.742C685.546 562.61 683.279 561.604 681.012 560.975C678.745 560.471 676.478 560.22 674.463 560.346C672.447 560.471 670.306 560.723 668.291 561.226C666.276 561.729 664.387 562.484 662.371 563.113C661.364 563.49 660.482 563.868 659.475 564.245L657.963 564.874C657.459 565.126 656.956 565.377 656.578 565.503C654.689 566.384 652.799 567.264 650.91 568.145C643.227 571.541 634.789 574.435 627.358 572.296C621.69 570.535 617.408 566.006 611.236 566.132C610.103 566.132 609.095 566.384 608.088 566.635C607.584 566.761 607.08 566.887 606.576 567.139C606.072 567.39 605.569 567.642 605.065 567.893C603.176 569.025 601.286 570.409 599.523 572.17C598.641 573.051 597.76 573.931 597.004 574.812C596.248 575.693 595.493 576.825 594.737 577.831C593.226 579.844 591.84 581.982 590.581 583.995C589.951 585.001 589.195 586.008 588.566 587.014C587.81 588.021 587.18 589.153 586.424 590.159C584.913 592.172 583.276 594.184 581.512 595.82C578.112 599.216 574.459 601.481 570.555 601.103C569.169 600.977 567.784 600.474 566.525 600.097C565.265 599.719 563.88 599.216 562.494 599.342C558.59 599.594 554.182 603.242 551.789 607.896C550.529 610.16 549.647 612.676 549.144 615.066C548.766 616.324 548.64 617.582 548.388 618.84C548.262 620.098 548.136 621.356 548.01 622.614C547.632 627.269 547.632 631.923 548.136 636.577C548.64 641.232 549.521 645.635 550.781 649.786C552.04 653.937 553.552 657.711 555.567 661.233C557.582 664.63 559.849 667.649 562.368 670.165C564.887 672.555 567.784 674.567 570.933 676.077C573.956 677.587 577.356 678.845 580.631 679.599C583.905 680.48 587.306 680.983 590.707 681.235C594.107 681.486 597.382 681.612 600.531 681.36C603.805 681.109 607.332 680.606 610.229 678.593C613.126 676.329 615.393 672.932 615.267 668.655Z" fill="#1D3854"/>
<path d="M679.5 575.189C674.084 576.573 668.795 578.586 663.505 580.473C658.341 582.611 653.051 584.624 648.139 587.266L644.361 589.153C643.101 589.782 641.842 590.536 640.582 591.165C638.063 592.549 635.67 593.933 633.151 595.317L625.972 599.845C625.342 600.223 624.713 600.6 624.209 600.977L622.446 602.235L618.919 604.751C609.725 611.544 600.908 618.966 592.848 627.394C591.84 628.401 590.832 629.407 589.825 630.539L586.928 633.81L584.031 637.081C583.527 637.584 583.024 638.213 582.52 638.716L581.134 640.477L575.593 647.396L570.303 654.692C569.673 655.572 569.043 656.327 568.539 657.208L566.902 659.849L563.502 665.133C562.368 666.894 561.36 668.781 560.353 670.668L557.204 676.203C557.96 676.958 558.464 677.838 558.967 678.845C568.162 661.611 579.245 646.138 591.84 632.552C599.775 624.124 608.339 616.45 617.282 609.531C626.35 602.739 635.796 596.826 645.62 591.543C656.704 585.756 668.417 581.228 680.382 577.831C682.397 577.705 681.515 574.686 679.5 575.189Z" fill="#203F5E"/>
<path d="M631.01 582.108C630.507 583.618 630.003 585.001 629.499 586.637L628.114 591.165C627.232 594.184 626.224 597.204 625.469 600.223C624.839 602.235 627.862 602.99 628.491 600.977C629.373 597.958 630.255 594.939 631.136 591.92C631.64 590.411 632.144 588.901 632.648 587.391L634.285 582.989C634.789 580.976 631.766 580.095 631.01 582.108Z" fill="#203F5E"/>
<path d="M568.918 617.457C568.54 620.853 568.288 624.501 568.162 627.898C567.91 631.42 567.784 634.816 567.658 638.213C567.532 641.735 567.532 645.131 567.532 648.654C567.532 652.05 567.532 655.447 567.658 658.843C567.784 661.107 570.555 660.604 570.429 658.34C570.429 654.943 570.303 651.673 570.303 648.151C570.303 644.754 570.303 641.232 570.555 637.835C570.807 631.042 571.185 623.998 571.94 617.205C572.192 614.815 569.17 615.066 568.918 617.457Z" fill="#203F5E"/>
<path d="M599.901 585.379C599.019 589.027 598.138 592.549 597.382 596.071L596.752 598.713L596.248 601.481L595.241 606.89L594.233 612.173C593.981 613.934 593.604 615.695 593.352 617.582C592.848 621.23 592.344 624.753 591.966 628.275C591.714 630.539 594.611 630.539 594.863 628.401C595.241 624.878 595.745 621.23 596.248 617.708C596.878 614.186 597.382 610.664 598.138 607.016C598.515 605.254 598.767 603.367 599.145 601.606L600.279 596.323C601.034 592.801 601.916 589.278 602.798 585.63C603.05 584.498 602.42 583.869 601.664 583.743C601.16 583.743 600.279 584.247 599.901 585.379Z" fill="#203F5E"/>
<path d="M644.109 604.625L640.079 603.367C638.693 602.99 637.308 602.487 636.048 602.11C633.403 601.355 630.632 600.726 627.861 599.971C625.972 599.468 625.091 602.738 626.98 603.116C629.751 603.745 632.522 604.5 635.167 605.254L639.197 606.387C640.582 606.764 641.842 607.267 643.227 607.645C644.991 608.399 645.998 605.254 644.109 604.625Z" fill="#203F5E"/>
<path d="M601.79 655.572C596.5 655.321 591.336 655.572 585.921 655.824C583.15 655.95 580.631 656.201 577.986 656.579C575.341 656.956 572.57 657.208 569.925 657.711C568.162 658.088 568.288 661.611 570.051 661.359C572.696 660.856 575.467 660.478 578.112 660.227C580.757 659.849 583.402 659.598 586.047 659.346C588.692 659.22 591.336 659.095 593.981 658.969C596.626 658.843 599.145 658.843 601.79 658.969C603.428 658.969 603.553 655.572 601.79 655.572Z" fill="#203F5E"/>
<path d="M629.625 631.797C626.728 631.168 623.957 630.665 620.934 630.162L616.526 629.407C615.015 629.156 613.629 629.03 612.118 628.904C609.221 628.526 606.198 628.275 603.176 628.023C600.153 627.772 597.256 627.772 594.233 627.646C592.344 627.646 591.966 631.042 593.855 631.042C596.878 631.168 599.901 631.168 602.798 631.42C604.309 631.42 605.695 631.671 607.206 631.797L611.614 632.3L616.022 632.804L618.163 633.055L620.305 633.433C623.201 633.936 626.098 634.439 628.869 635.068C629.751 635.194 630.38 634.565 630.506 633.684C630.884 632.929 630.632 632.049 629.625 631.797Z" fill="#203F5E"/>
<path d="M566.776 643.622C565.391 639.974 562.242 637.206 560.605 633.684C556.197 623.872 564.635 613.305 572.948 606.512C581.261 599.719 590.959 591.417 589.825 580.85C588.943 573.177 582.52 567.39 580.001 560.22C576.475 550.659 580.127 539.967 585.039 531.035C589.951 522.104 596.248 513.676 598.642 503.738C601.035 493.8 597.382 478.705 588.314 474.05C579.245 469.27 564.761 474.931 557.96 482.478C551.159 490.026 547.758 500.09 543.224 509.147C538.69 518.204 531.889 527.261 521.939 529.903C514.508 531.916 506.069 529.903 499.268 533.551C489.822 538.583 488.562 551.288 487.681 561.981C486.799 572.674 482.895 585.63 472.315 587.517C468.411 588.272 464.38 587.14 460.602 588.146C455.438 589.404 451.659 594.436 450.526 599.594C449.392 604.877 450.4 610.286 451.785 615.444C457.453 634.816 470.552 654.566 488.436 664.001C506.321 673.435 529.999 672.932 549.27 666.517C554.308 664.881 559.471 662.491 562.998 658.591C566.776 654.566 568.666 648.654 566.776 643.622Z" fill="#1A324F"/>
<path d="M576.601 491.536C563.124 517.198 549.648 542.986 536.045 568.648C522.569 594.184 509.218 619.847 495.742 645.383L481.887 671.8C483.147 672.555 484.28 673.561 485.162 674.568C495.868 654.189 506.573 633.81 517.279 613.431C530.755 587.895 544.106 562.233 557.582 536.696C565.139 522.23 572.696 507.889 580.253 493.423C581.639 491.033 577.86 489.146 576.601 491.536Z" fill="#203F5E"/>
<path d="M533.526 537.325C535.919 544.873 538.186 552.295 540.579 559.842C541.335 562.358 545.365 561.226 544.609 558.584C542.216 551.037 539.949 543.615 537.556 536.067C536.801 533.551 532.77 534.809 533.526 537.325Z" fill="#203F5E"/>
<path d="M478.235 605.003C483.147 620.098 488.059 635.194 492.971 650.289C493.852 652.805 497.757 651.547 497.001 649.031C492.089 633.936 487.177 618.84 482.265 603.745C481.509 601.229 477.479 602.487 478.235 605.003Z" fill="#203F5E"/>
<path d="M499.772 558.962C504.936 575.441 510.1 591.794 515.137 608.273C515.893 610.789 519.924 609.657 519.168 607.016C514.004 590.536 508.84 574.183 503.802 557.704C502.92 555.188 498.89 556.446 499.772 558.962Z" fill="#203F5E"/>
<path d="M565.895 550.911C558.338 553.301 550.907 555.565 543.35 557.955C540.831 558.71 541.965 562.736 544.609 561.981C552.166 559.591 559.597 557.327 567.154 554.936C569.673 554.182 568.414 550.156 565.895 550.911Z" fill="#203F5E"/>
<path d="M541.587 634.816C526.347 639.345 511.107 643.874 495.867 648.402C493.222 649.157 494.482 653.182 497.127 652.428C512.367 647.899 527.606 643.37 542.846 638.842C545.365 638.087 544.106 634.062 541.587 634.816Z" fill="#203F5E"/>
<path d="M567.28 591.04C550.781 596.197 534.408 601.355 517.909 606.387C515.39 607.141 516.523 611.167 519.168 610.412C535.667 605.254 552.041 600.097 568.54 595.065C571.059 594.31 569.925 590.285 567.28 591.04Z" fill="#203F5E"/>
<path d="M162.733 668.655C162.859 665.636 164.119 662.743 164.244 659.724C164.37 657.711 163.867 655.824 163.111 654.063C162.733 653.182 162.229 652.428 161.725 651.673C161.222 650.918 160.592 650.163 159.836 649.534C158.451 648.276 156.813 647.27 155.05 646.389C154.169 646.012 153.287 645.509 152.405 645.257C151.524 644.88 150.642 644.754 149.76 644.502C146.234 643.622 142.581 642.616 139.307 641.232C137.669 640.477 136.158 639.596 134.898 638.339C134.269 637.71 133.639 637.081 133.135 636.326C132.631 635.571 132.128 634.816 131.75 633.936C130.616 631.294 130.49 628.401 130.364 625.382C130.364 622.363 130.238 619.469 129.609 616.576C129.105 614.689 128.349 612.928 127.341 611.418C126.838 610.664 126.334 609.783 125.704 609.154C125.074 608.525 124.445 607.77 123.689 607.141C120.918 604.625 117.517 602.487 114.117 601.229C112.354 600.6 110.59 599.971 108.953 599.342C108.071 598.965 107.19 598.713 106.308 598.462C105.426 598.21 104.545 597.958 103.663 597.707C101.9 597.078 100.137 596.575 98.4992 595.82C96.8619 595.191 95.0986 594.436 93.5872 593.43C91.9499 592.549 90.4385 591.165 88.9271 589.656C87.4157 588.146 86.0303 586.511 85.0227 584.624C82.7556 580.976 81.4962 576.699 82.3778 573.051C83.2594 569.277 86.4082 566.006 90.4385 563.742C92.4537 562.61 94.7208 561.604 96.9878 560.975C99.2549 560.471 101.522 560.22 103.537 560.346C105.552 560.471 107.693 560.723 109.709 561.226C111.724 561.729 113.613 562.484 115.628 563.113C116.636 563.49 117.517 563.868 118.525 564.245L120.036 564.874C120.54 565.126 121.044 565.377 121.422 565.503C123.311 566.384 125.2 567.264 127.09 568.145C134.772 571.541 143.211 574.435 150.642 572.296C156.31 570.535 160.592 566.006 166.763 566.132C167.897 566.132 168.905 566.384 169.912 566.635C170.416 566.761 170.92 566.887 171.424 567.139C171.927 567.39 172.431 567.642 172.935 567.893C174.824 569.025 176.713 570.409 178.477 572.17C179.358 573.051 180.24 573.931 180.996 574.812C181.751 575.693 182.507 576.825 183.263 577.831C184.774 579.844 186.16 581.982 187.419 583.995C188.049 585.001 188.804 586.008 189.434 587.014C190.19 588.021 190.82 589.153 191.575 590.159C193.087 592.172 194.724 594.184 196.487 595.82C199.888 599.216 203.54 601.481 207.445 601.103C208.83 600.977 210.216 600.474 211.475 600.097C212.735 599.719 214.12 599.216 215.506 599.342C219.41 599.594 223.818 603.242 226.211 607.896C227.471 610.16 228.352 612.676 228.856 615.066C229.234 616.324 229.36 617.582 229.612 618.84C229.738 620.098 229.864 621.356 229.99 622.614C230.368 627.269 230.368 631.923 229.864 636.577C229.36 641.232 228.478 645.635 227.219 649.786C225.959 653.937 224.448 657.711 222.433 661.233C220.418 664.63 218.15 667.649 215.632 670.165C213.113 672.555 210.216 674.567 207.067 676.077C204.044 677.587 200.644 678.845 197.369 679.599C194.094 680.48 190.694 680.983 187.293 681.235C183.892 681.486 180.618 681.612 177.469 681.36C174.194 681.109 170.668 680.606 167.771 678.593C164.874 676.329 162.607 672.932 162.733 668.655Z" fill="#1D3854"/>
<path d="M98.4992 575.189C103.915 576.573 109.205 578.586 114.495 580.473C119.659 582.611 124.948 584.624 129.86 587.266L133.639 589.153C134.898 589.782 136.158 590.536 137.417 591.165C139.936 592.549 142.329 593.933 144.848 595.317L152.027 599.845C152.657 600.223 153.287 600.6 153.791 600.977L155.554 602.235L159.081 604.751C168.275 611.544 177.091 618.966 185.152 627.394C186.159 628.401 187.167 629.407 188.175 630.539L191.071 633.81L193.968 637.081C194.472 637.584 194.976 638.213 195.48 638.716L196.865 640.477L202.407 647.396L207.697 654.692C208.326 655.572 208.956 656.327 209.46 657.208L211.097 659.849L214.498 665.133C215.631 666.894 216.639 668.781 217.647 670.668L220.795 676.203C220.04 676.958 219.536 677.838 219.032 678.845C209.838 661.611 198.754 646.138 186.159 632.552C178.225 624.124 169.66 616.45 160.718 609.531C151.65 602.739 142.203 596.826 132.379 591.543C121.296 585.756 109.583 581.228 97.6175 577.831C95.6024 577.705 96.484 574.686 98.4992 575.189Z" fill="#203F5E"/>
<path d="M146.989 582.108C147.493 583.618 147.997 585.001 148.501 586.637L149.886 591.165C150.768 594.184 151.775 597.204 152.531 600.223C153.161 602.235 150.138 602.99 149.508 600.977C148.627 597.958 147.745 594.939 146.863 591.92C146.36 590.411 145.856 588.901 145.352 587.391L143.715 582.989C143.211 580.976 146.234 580.095 146.989 582.108Z" fill="#203F5E"/>
<path d="M209.082 617.457C209.46 620.853 209.712 624.501 209.838 627.898C210.09 631.42 210.216 634.816 210.342 638.213C210.468 641.735 210.468 645.131 210.468 648.654C210.468 652.05 210.468 655.447 210.342 658.843C210.216 661.107 207.445 660.604 207.571 658.34C207.571 654.943 207.697 651.673 207.697 648.151C207.697 644.754 207.697 641.232 207.445 637.835C207.193 631.042 206.815 623.998 206.059 617.205C205.807 614.815 208.83 615.066 209.082 617.457Z" fill="#203F5E"/>
<path d="M178.099 585.379C178.98 589.027 179.862 592.549 180.618 596.071L181.247 598.713L181.751 601.481L182.759 606.89L183.766 612.173C184.018 613.934 184.396 615.695 184.648 617.582C185.152 621.23 185.656 624.753 186.034 628.275C186.285 630.539 183.389 630.539 183.137 628.401C182.759 624.878 182.255 621.23 181.751 617.708C181.122 614.186 180.618 610.664 179.862 607.016C179.484 605.254 179.232 603.367 178.854 601.606L177.721 596.323C176.965 592.801 176.084 589.278 175.202 585.63C174.95 584.498 175.58 583.869 176.335 583.743C176.839 583.743 177.721 584.247 178.099 585.379Z" fill="#203F5E"/>
<path d="M133.891 604.625L137.921 603.367C139.307 602.99 140.692 602.487 141.952 602.11C144.596 601.355 147.367 600.726 150.138 599.971C152.027 599.468 152.909 602.738 151.02 603.116C148.249 603.745 145.478 604.5 142.833 605.254L138.803 606.387C137.417 606.764 136.158 607.267 134.772 607.645C133.009 608.399 132.002 605.254 133.891 604.625Z" fill="#203F5E"/>
<path d="M176.21 655.572C181.499 655.321 186.663 655.572 192.079 655.824C194.85 655.95 197.369 656.201 200.014 656.579C202.659 656.956 205.43 657.208 208.075 657.711C209.838 658.088 209.712 661.611 207.949 661.359C205.304 660.856 202.533 660.478 199.888 660.227C197.243 659.849 194.598 659.598 191.953 659.346C189.308 659.22 186.663 659.095 184.018 658.969C181.373 658.843 178.854 658.843 176.21 658.969C174.572 658.969 174.446 655.572 176.21 655.572Z" fill="#203F5E"/>
<path d="M148.375 631.797C151.272 631.168 154.043 630.665 157.065 630.162L161.473 629.407C162.985 629.156 164.37 629.03 165.882 628.904C168.779 628.526 171.801 628.275 174.824 628.023C177.847 627.772 180.744 627.772 183.766 627.646C185.656 627.646 186.033 631.042 184.144 631.042C181.121 631.168 178.099 631.168 175.202 631.42C173.691 631.42 172.305 631.671 170.794 631.797L166.385 632.3L161.977 632.804L159.836 633.055L157.695 633.433C154.798 633.936 151.901 634.439 149.131 635.068C148.249 635.194 147.619 634.565 147.493 633.684C147.115 632.929 147.367 632.049 148.375 631.797Z" fill="#203F5E"/>
<path d="M212.609 629.533C214.498 625.885 218.15 623.369 220.292 619.847C226.211 610.16 218.654 598.084 210.971 589.907C203.163 581.731 194.094 571.793 196.613 560.849C198.502 552.924 205.933 547.766 209.586 540.47C214.498 530.91 212.105 519.211 208.075 509.273C204.17 499.335 198.628 489.649 197.369 478.956C196.109 468.264 201.903 452.917 211.979 449.143C222.055 445.369 236.539 453.042 242.71 461.848C248.882 470.654 251.149 481.598 254.676 491.661C258.328 501.851 264.248 512.166 274.198 516.066C281.755 519.085 290.823 518.078 297.372 522.859C306.566 529.4 306.189 542.86 305.811 554.182C305.433 565.503 307.826 579.466 318.532 582.863C322.436 584.121 326.844 583.492 330.623 585.001C335.913 587.014 339.187 592.675 339.691 598.336C340.195 603.996 338.557 609.531 336.29 614.689C327.852 634.187 311.604 653.182 291.579 660.73C271.679 668.278 246.867 664.63 227.597 655.572C222.433 653.182 217.521 650.037 214.246 645.509C211.223 640.98 209.964 634.565 212.609 629.533Z" fill="#1A324F"/>
<path d="M222.055 469.018C232.886 497.7 243.718 526.255 254.424 554.936C265.129 583.492 275.961 611.922 286.666 640.477L297.75 669.913C296.364 670.542 295.105 671.423 293.971 672.429C285.407 649.786 276.842 627.017 268.278 604.374C257.572 575.818 246.741 547.389 236.035 518.833C229.99 502.731 223.944 486.63 217.898 470.654C216.891 468.012 221.047 466.377 222.055 469.018Z" fill="#203F5E"/>
<path d="M261.099 522.607C257.698 530.155 254.298 537.702 250.897 545.25C249.763 547.892 245.733 546.005 246.867 543.489C250.267 535.941 253.668 528.394 257.068 520.846C258.328 518.204 262.232 519.965 261.099 522.607Z" fill="#203F5E"/>
<path d="M310.219 600.6C303.166 615.821 295.987 630.917 288.934 646.138C287.674 648.654 283.77 646.893 284.903 644.377C291.956 629.155 299.135 614.06 306.188 598.839C307.448 596.197 311.478 597.958 310.219 600.6Z" fill="#203F5E"/>
<path d="M293.72 549.653C286.163 566.132 278.732 582.737 271.175 599.216C270.041 601.858 266.011 599.971 267.144 597.455C274.701 580.976 282.132 564.371 289.689 547.892C290.949 545.25 294.979 547.011 293.72 549.653Z" fill="#203F5E"/>
<path d="M225.581 532.671C233.138 536.067 240.695 539.464 248.252 542.86C250.897 543.992 249.008 548.018 246.489 546.885C238.932 543.489 231.375 540.093 223.818 536.696C221.173 535.438 222.936 531.413 225.581 532.671Z" fill="#203F5E"/>
<path d="M240.192 623.62C255.557 630.288 270.923 637.081 286.289 643.748C288.934 644.88 287.044 648.905 284.525 647.773C269.16 641.106 253.794 634.313 238.428 627.646C235.783 626.514 237.547 622.488 240.192 623.62Z" fill="#203F5E"/>
<path d="M218.906 574.435C235.405 581.982 252.031 589.404 268.53 596.952C271.175 598.084 269.286 602.11 266.767 600.977C250.267 593.43 233.642 586.008 217.143 578.46C214.498 577.328 216.261 573.302 218.906 574.435Z" fill="#203F5E"/>
<path d="M368.281 426.374H373.445V427.758H368.281V426.374ZM378.609 426.374H383.773V427.758H378.609V426.374ZM388.937 426.374H394.101V427.758H388.937V426.374ZM399.391 426.374H404.554V427.758H399.391V426.374ZM409.718 426.374H414.882V427.758H409.718V426.374ZM420.046 426.374H425.21V427.758H420.046V426.374ZM430.374 426.374H435.538V427.758H430.374V426.374ZM440.702 426.374H445.866V427.758H440.702V426.374ZM451.156 426.374H456.319V427.758H451.156V426.374ZM461.483 426.374H466.647V427.758H461.483V426.374ZM471.811 426.374H476.345C476.597 426.374 476.723 426.374 476.975 426.374V427.758C476.723 427.758 476.471 427.758 476.345 427.758H471.811V426.374ZM481.887 425.367C483.398 424.739 484.91 423.984 486.295 422.852L487.051 423.984C485.539 425.116 484.028 425.996 482.265 426.751L481.887 425.367ZM489.822 419.078C490.829 417.568 491.585 416.059 492.215 414.298L493.474 414.801C492.845 416.688 491.963 418.323 490.955 419.958L489.822 419.078ZM493.222 408.888C493.222 408.511 493.222 408.134 493.222 407.882V403.353H494.482V407.882C494.482 408.259 494.482 408.637 494.482 409.014L493.222 408.888ZM493.222 391.906H494.482V397.567H493.222V391.906ZM493.222 380.584H494.482V386.245H493.222V380.584ZM493.222 369.263H494.482V374.924H493.222V369.263ZM493.222 358.319H494.482V363.602H493.222V358.319Z" fill="#2B496D"/>
<path d="M500.225 346.907C500.369 343.436 497.669 340.506 494.194 340.362C490.719 340.219 487.786 342.916 487.642 346.386C487.498 349.857 490.198 352.787 493.673 352.931C497.148 353.074 500.081 350.377 500.225 346.907Z" fill="#2B496D"/>
<path d="M506.321 343.349C506.699 343.098 506.951 342.72 507.329 342.469C505.062 337.563 500.275 334.166 494.482 333.914C488.688 333.663 483.524 336.808 480.879 341.588C481.257 341.84 481.635 342.091 482.013 342.217C484.406 337.814 489.066 335.047 494.356 335.172C499.772 335.298 504.306 338.695 506.321 343.349Z" fill="#2B496D"/>
<path d="M511.485 338.695L512.493 337.814C508.966 331.776 502.417 327.499 494.86 327.247C486.547 326.87 479.116 331.399 475.212 338.192C475.59 338.443 475.968 338.569 476.345 338.82C479.998 332.405 486.925 328.254 494.734 328.505C501.913 328.757 508.084 332.782 511.485 338.695Z" fill="#2B496D"/>
<path d="M516.019 334.418C516.397 334.166 516.649 333.789 517.027 333.537C512.241 326.367 504.306 321.461 494.986 321.083C484.154 320.58 474.582 326.493 469.67 335.298C470.048 335.424 470.426 335.676 470.803 335.801C475.464 327.373 484.658 321.838 494.986 322.216C503.928 322.719 511.611 327.499 516.019 334.418Z" fill="#2B496D"/>
<path d="M255.305 518.833H250.645V517.701H255.305V518.833ZM245.985 518.833H241.325V517.701H245.985V518.833ZM236.791 518.833H232.131V517.701H236.791V518.833ZM227.597 518.833H222.937V517.701H227.597V518.833ZM218.276 518.833H213.616V517.701H218.276V518.833ZM209.082 518.833H204.422V517.701H209.082V518.833ZM199.762 518.833H195.102V517.701H199.762V518.833ZM190.568 518.833H185.908V517.701H190.568V518.833ZM181.248 518.833H176.587V517.701H181.248V518.833ZM172.053 518.833H167.393V517.701H172.053V518.833ZM162.859 518.833H158.829C158.577 518.833 158.451 518.833 158.199 518.833V517.701C158.325 517.701 158.577 517.701 158.829 517.701H162.859V518.833ZM153.413 517.953C151.902 517.449 150.516 516.695 149.131 515.688L149.76 514.808C151.02 515.688 152.279 516.317 153.665 516.82L153.413 517.953ZM145.856 512.418C144.848 511.16 144.093 509.776 143.589 508.266L144.722 507.889C145.226 509.273 145.982 510.531 146.864 511.789L145.856 512.418ZM142.581 503.612C142.581 503.36 142.581 502.983 142.581 502.731V498.958H143.715V502.731C143.715 502.983 143.715 503.36 143.715 503.612H142.581ZM143.715 494.303H142.581V489.649H143.715V494.303ZM143.715 485.12H142.581V480.466H143.715V485.12ZM143.715 475.811H142.581V471.157H143.715V475.811ZM143.715 466.628H142.581V462.351H143.715V466.628Z" fill="#2B496D"/>
<path d="M502.795 570.535H507.455V571.667H502.795V570.535ZM511.989 570.535H516.649V571.667H511.989V570.535ZM521.183 570.535H525.844V571.667H521.183V570.535ZM530.504 570.535H535.164V571.667H530.504V570.535ZM539.698 570.535H544.358V571.667H539.698V570.535ZM549.018 570.535H553.678V571.667H549.018V570.535ZM558.212 570.535H562.872V571.667H558.212V570.535ZM567.533 570.535H572.193V571.667H567.533V570.535ZM576.727 570.535H581.387V571.667H576.727V570.535ZM585.921 570.535H590.581V571.667H585.921V570.535ZM595.241 570.535H599.272C599.523 570.535 599.649 570.535 599.901 570.535V571.667C599.649 571.667 599.523 571.667 599.272 571.667H595.241V570.535ZM604.184 569.654C605.569 569.151 606.954 568.522 608.088 567.642L608.718 568.522C607.458 569.403 605.947 570.158 604.435 570.787L604.184 569.654ZM611.237 564.497C612.118 563.365 612.874 561.981 613.378 560.597L614.511 560.975C614.008 562.484 613.126 563.868 612.244 565.126L611.237 564.497ZM614.259 556.32C614.259 556.069 614.259 555.691 614.259 555.44V551.666H615.393V555.44C615.393 555.691 615.393 556.069 615.393 556.32H614.259ZM614.385 542.483H615.519V547.137H614.385V542.483ZM614.385 533.3H615.519V537.954H614.385V533.3ZM614.385 523.991H615.519V528.645H614.385V523.991ZM614.385 515.059H615.519V519.336H614.385V515.059Z" fill="#2B496D"/>
<path d="M267.522 512.04L162.607 488.391C158.325 487.384 154.043 490.152 153.161 494.429L139.433 554.936C138.425 559.213 141.196 563.49 145.478 564.371L250.393 588.02C254.676 589.027 258.958 586.259 259.84 581.982L273.442 521.475C274.45 517.198 271.805 513.047 267.522 512.04Z" fill="#E01B5D"/>
<path d="M271.153 531.993L150.748 504.896L148.256 515.941L268.662 543.037L271.153 531.993Z" fill="#ED5690"/>
<path d="M232.197 564.962C233.313 560.015 230.202 555.101 225.249 553.986C220.296 552.871 215.375 555.978 214.259 560.926C213.143 565.873 216.254 570.787 221.207 571.902C226.161 573.017 231.081 569.91 232.197 564.962Z" fill="#1A67E2"/>
<path d="M244.697 567.723C245.813 562.776 242.702 557.862 237.749 556.747C232.795 555.632 227.875 558.739 226.759 563.686C225.643 568.634 228.753 573.548 233.707 574.663C238.66 575.778 243.581 572.671 244.697 567.723Z" fill="#E01B5D"/>
<path opacity="0.56" d="M267.523 512.04L256.061 562.861C254.424 570.158 247.245 574.938 239.94 573.68L139.307 556.446C139.181 560.094 141.7 563.49 145.478 564.371L250.394 588.02C254.676 589.027 258.958 586.259 259.84 581.982L273.442 521.475C274.45 517.198 271.805 513.047 267.523 512.04Z" fill="#C11658"/>
<path opacity="0.34" d="M197.999 500.593L174.069 495.184C166.134 493.423 158.325 498.329 156.562 506.254L150.894 531.413L161.852 508.392C164.371 503.235 169.66 499.964 175.328 500.09L197.999 500.593Z" fill="#DDE7FF"/>
<path d="M253.416 540.093H145.856C141.448 540.093 137.921 543.615 137.921 548.018V610.035C137.921 614.437 141.448 617.96 145.856 617.96H253.416C257.824 617.96 261.351 614.437 261.351 610.035V548.018C261.351 543.615 257.824 540.093 253.416 540.093Z" fill="#FFAE13"/>
<path d="M261.351 558.71H137.921V570.032H261.351V558.71Z" fill="#FFC46E"/>
<path d="M221.299 608.651C226.377 608.651 230.493 604.539 230.493 599.468C230.493 594.396 226.377 590.285 221.299 590.285C216.221 590.285 212.105 594.396 212.105 599.468C212.105 604.539 216.221 608.651 221.299 608.651Z" fill="#1A67E2"/>
<path d="M234.146 608.651C239.224 608.651 243.34 604.539 243.34 599.468C243.34 594.396 239.224 590.285 234.146 590.285C229.068 590.285 224.952 594.396 224.952 599.468C224.952 604.539 229.068 608.651 234.146 608.651Z" fill="#E01B5D"/>
<path opacity="0.33" d="M253.416 540.093V592.172C253.416 599.719 247.497 605.883 240.066 606.261L138.047 611.544C138.803 615.192 141.952 617.96 145.856 617.96H253.416C257.824 617.96 261.351 614.437 261.351 610.035V548.018C261.351 543.615 257.824 540.093 253.416 540.093Z" fill="#FFAE13"/>
<path opacity="0.34" d="M183.011 544.244H158.451C150.39 544.244 143.715 550.785 143.715 558.962V584.75L149.383 559.968C150.642 554.307 155.05 550.03 160.718 548.898L183.011 544.244Z" fill="#DDE7FF"/>
<path d="M377.224 429.519H372.564V428.387H377.224V429.519ZM368.03 429.519H363.37V428.387H368.03V429.519ZM358.835 429.519H354.175V428.387H358.835V429.519ZM349.515 429.519H344.855V428.387H349.515V429.519ZM340.321 429.519H335.661V428.387H340.321V429.519ZM331.001 429.519H328.104C327.474 429.519 326.844 429.519 326.341 429.393L326.467 428.261C326.97 428.387 327.6 428.387 328.104 428.387H331.001V429.519ZM321.806 427.632C320.421 426.751 319.287 425.619 318.406 424.235L319.413 423.606C320.169 424.864 321.303 425.871 322.436 426.751L321.806 427.632ZM316.769 419.707C316.643 419.078 316.643 418.575 316.643 417.946V414.926H317.776V417.946C317.776 418.449 317.776 418.952 317.902 419.455L316.769 419.707ZM317.776 410.398H316.643V405.743H317.776V410.398ZM317.776 401.215H316.643V396.56H317.776V401.215ZM317.776 391.906H316.643V387.252H317.776V391.906ZM317.776 382.723H316.643V378.069H317.776V382.723ZM317.776 373.414H316.643V369.263H317.776V373.414Z" fill="#2B496D"/>
<path d="M313.242 391.025H308.708V389.893H313.368V391.025H313.242ZM304.047 391.025H299.387V389.893H304.047V391.025ZM294.727 391.025H290.067V389.893H294.727V391.025ZM285.533 391.025H280.873V389.893H285.533V391.025ZM276.339 391.025H271.679V389.893H276.339V391.025ZM267.019 391.025H264.122C263.492 391.025 262.862 391.025 262.358 390.9L262.484 389.767C262.988 389.893 263.618 389.893 264.122 389.893H267.019V391.025ZM257.824 389.139C256.439 388.258 255.305 387.126 254.424 385.742L255.431 385.113C256.187 386.371 257.32 387.377 258.454 388.258L257.824 389.139ZM252.66 381.213C252.534 380.584 252.534 380.081 252.534 379.452V376.433H253.668V379.452C253.668 379.955 253.668 380.459 253.794 380.962L252.66 381.213ZM253.794 371.905H252.66V367.25H253.794V371.905ZM253.794 362.722H252.66V358.067H253.794V362.722ZM253.794 353.413H252.66V348.758H253.794V353.413ZM253.794 344.23H252.66V339.575H253.794V344.23ZM253.794 334.921H252.66V330.77H253.794V334.921Z" fill="#2B496D"/>
<path d="M316.391 341.965L311.227 336.43H300.773V341.965V361.967H334.401V341.965H316.391Z" fill="#2B496D"/>
<path d="M431.13 650.541H362.74L367.778 578.963H426.092L431.13 650.541Z" fill="#0D55BC"/>
<path d="M426.092 578.963H367.778L363.496 639.848C375.335 636.577 409.719 628.275 429.241 623.495L426.092 578.963Z" fill="#114F99"/>
<path d="M363.495 639.974L362.74 650.541H431.13L429.241 623.621C409.719 628.275 375.335 636.703 363.495 639.974Z" fill="#0D55BC"/>
<path d="M546.877 417.82H246.993C242.459 417.82 238.806 421.468 238.806 425.996V604.877C238.806 609.406 242.459 613.054 246.993 613.054H546.877C551.411 613.054 555.063 609.406 555.063 604.877V426.122C555.189 421.594 551.411 417.82 546.877 417.82Z" fill="#1A67E2"/>
<path d="M544.232 428.764H249.764V602.11H544.232V428.764Z" fill="#B8DDFF"/>
<path d="M445.11 645.383H348.885V666.517H445.11V645.383Z" fill="#0D55BC"/>
<path opacity="0.35" d="M546.877 417.82L542.595 554.433C542.091 571.29 528.866 585.001 511.989 586.259L238.932 605.883C239.436 609.909 242.837 613.179 247.119 613.179H547.003C551.537 613.179 555.189 609.531 555.189 605.003V426.122C555.189 421.594 551.411 417.82 546.877 417.82Z" fill="#0B5799"/>
<path d="M322.94 435.808H256.943V501.851L272.308 447.633L322.94 435.808Z" fill="#D2ECFF"/>
<path d="M380.373 562.736C373.446 562.736 367.778 557.075 367.778 550.156V510.279C367.778 503.36 373.446 497.7 380.373 497.7H416.52C423.447 497.7 429.115 503.36 429.115 510.279V513.424C429.115 515.688 427.226 517.575 424.959 517.575C422.691 517.575 420.802 515.688 420.802 513.424V510.279C420.802 508.015 418.913 506.128 416.646 506.128H380.499C378.232 506.128 376.342 508.015 376.342 510.279V550.156C376.342 552.421 378.232 554.307 380.499 554.307V562.736H380.373Z" fill="#1F324F"/>
<path d="M430.248 529.652H363.747C361.103 529.652 358.835 531.79 358.835 534.558V582.611C358.835 585.253 360.977 587.517 363.747 587.517H430.248C432.893 587.517 435.16 585.379 435.16 582.611V534.558C435.16 531.916 432.893 529.652 430.248 529.652Z" fill="#E01B5D"/>
<path d="M400.525 555.817V546.76C400.525 545.502 399.517 544.495 398.258 544.495H395.739C394.479 544.495 393.471 545.502 393.471 546.76V555.817C390.323 557.201 388.182 560.22 388.182 563.868C388.182 568.648 392.086 572.674 396.998 572.674C401.784 572.674 405.814 568.774 405.814 563.868C405.814 560.346 403.547 557.201 400.525 555.817Z" fill="#1F324F"/>
<path d="M395.36 557.955C395.99 557.578 396.746 557.452 397.502 557.326C396.116 557.075 394.605 557.201 393.345 557.83C389.819 559.465 388.307 563.616 389.945 567.139C390.323 567.893 390.826 568.522 391.33 569.151C389.315 564.874 391.078 559.968 395.36 557.955Z" fill="#2A4368"/>
<path d="M400.525 555.817V546.76C400.525 545.502 399.517 544.495 398.258 544.495H396.116C396.998 544.873 397.502 545.628 397.502 546.634V555.691C400.651 557.075 402.792 560.094 402.792 563.742C402.792 568.271 399.391 571.919 395.109 572.422C395.739 572.548 396.368 572.674 397.124 572.674C401.91 572.674 405.94 568.774 405.94 563.868C405.815 560.346 403.547 557.201 400.525 555.817Z" fill="#15273F"/>
<path d="M430.122 529.652L429.241 557.83C428.863 569.025 420.047 578.083 408.837 578.963L358.835 582.486C358.835 585.253 361.103 587.517 363.873 587.517H430.122C432.893 587.517 435.16 585.253 435.16 582.486V534.809C435.16 531.916 432.893 529.652 430.122 529.652Z" fill="#C6185F"/>
<path d="M388.182 533.803H372.942C367.778 533.803 363.622 537.954 363.622 543.112V551.288L366.77 543.237C367.904 540.47 370.171 538.457 373.068 537.702L388.182 533.803Z" fill="#ED2E77"/>
<path d="M370.045 524.871V509.147C370.045 509.147 370.297 499.712 379.113 499.712C387.804 499.712 414.253 499.712 414.253 499.712L378.735 502.983C375.587 503.36 372.942 505.751 372.312 508.895L370.045 524.871Z" fill="#2A4368"/>
<path d="M390.826 548.395H331.378C329.363 542.86 323.948 538.835 317.65 538.835C309.589 538.835 303.04 545.376 303.04 553.427C303.04 561.478 309.589 568.019 317.65 568.019C323.948 568.019 329.237 563.994 331.378 558.459H363.621V564.371C363.621 565.881 364.881 567.139 366.392 567.139H368.03C369.667 567.139 370.926 565.881 370.926 564.245V558.333H374.957V564.623C374.957 566.132 376.216 567.264 377.602 567.264H379.491C381.002 567.264 382.136 566.006 382.136 564.623V558.333H386.166V568.019C386.166 568.522 386.292 568.9 386.544 569.403C387.426 569.403 388.307 569.151 388.937 568.648C390.071 567.893 390.952 566.635 391.078 565.126V548.521C391.078 548.395 390.952 548.395 390.826 548.395ZM311.605 558.207C308.834 558.207 306.693 556.069 306.693 553.301C306.693 550.534 308.834 548.395 311.605 548.395C314.375 548.395 316.517 550.534 316.517 553.301C316.517 556.069 314.375 558.207 311.605 558.207Z" fill="#FFAA00"/>
<path d="M391.204 548.521V565C391.078 566.384 390.196 567.642 389.063 568.522C388.307 569.025 387.426 569.277 386.67 569.277C387.174 570.032 387.929 570.661 388.937 570.661H390.826C392.338 570.661 393.471 569.403 393.471 568.019V555.691V553.175V551.163C393.471 549.779 392.464 548.647 391.204 548.521Z" fill="#ACC2E8"/>
<path d="M379.869 564.245C379.869 564.245 378.735 566.132 374.957 564.623C374.957 566.132 376.216 567.264 377.601 567.264H379.491C381.002 567.264 382.136 566.006 382.136 564.623V558.333H379.869V564.245Z" fill="#E2940A"/>
<path d="M391.204 548.521V565C391.078 566.384 390.196 567.642 389.063 568.522C388.307 569.025 387.426 569.277 386.67 569.277C387.174 570.032 387.929 570.661 388.937 570.661H390.826C392.338 570.661 393.471 569.403 393.471 568.019V555.691V553.175V551.163C393.471 549.779 392.464 548.647 391.204 548.521Z" fill="#E2940A"/>
<path d="M386.166 550.282H334.401V552.295H386.166V550.282Z" fill="#FFC45C"/>
<path d="M368.534 564.245C368.534 564.245 367.4 566.132 363.622 564.623C363.622 566.132 364.755 567.264 366.266 567.264H368.156C369.667 567.264 370.801 566.006 370.801 564.623V558.333H368.534V564.245Z" fill="#E2940A"/>
<path d="M317.524 543.489C322.94 543.489 327.726 546.257 330.497 550.534C329.237 544.495 323.948 539.967 317.524 539.967C311.101 539.967 305.811 544.495 304.552 550.534C307.322 546.382 312.108 543.489 317.524 543.489Z" fill="#FFC45C"/>
<path d="M452.793 444.363H341.202V458.577H452.793V444.363Z" fill="#E1F2FF"/>
<path d="M452.793 470.905H341.202V485.12H452.793V470.905Z" fill="#E1F2FF"/>
<path d="M362.991 455.558C365.148 455.558 366.896 453.812 366.896 451.659C366.896 449.505 365.148 447.759 362.991 447.759C360.835 447.759 359.087 449.505 359.087 451.659C359.087 453.812 360.835 455.558 362.991 455.558Z" fill="#384E6D"/>
<path d="M379.994 455.558C382.151 455.558 383.899 453.812 383.899 451.659C383.899 449.505 382.151 447.759 379.994 447.759C377.838 447.759 376.09 449.505 376.09 451.659C376.09 453.812 377.838 455.558 379.994 455.558Z" fill="#384E6D"/>
<path d="M396.998 455.558C399.154 455.558 400.902 453.812 400.902 451.659C400.902 449.505 399.154 447.759 396.998 447.759C394.841 447.759 393.093 449.505 393.093 451.659C393.093 453.812 394.841 455.558 396.998 455.558Z" fill="#384E6D"/>
<path d="M414.001 455.558C416.157 455.558 417.905 453.812 417.905 451.659C417.905 449.505 416.157 447.759 414.001 447.759C411.844 447.759 410.096 449.505 410.096 451.659C410.096 453.812 411.844 455.558 414.001 455.558Z" fill="#384E6D"/>
<path d="M430.878 455.558C433.034 455.558 434.782 453.812 434.782 451.659C434.782 449.505 433.034 447.759 430.878 447.759C428.721 447.759 426.973 449.505 426.973 451.659C426.973 453.812 428.721 455.558 430.878 455.558Z" fill="#384E6D"/>
<path d="M362.991 481.849C365.148 481.849 366.896 480.104 366.896 477.95C366.896 475.796 365.148 474.05 362.991 474.05C360.835 474.05 359.087 475.796 359.087 477.95C359.087 480.104 360.835 481.849 362.991 481.849Z" fill="#384E6D"/>
<path d="M379.994 481.849C382.151 481.849 383.899 480.104 383.899 477.95C383.899 475.796 382.151 474.05 379.994 474.05C377.838 474.05 376.09 475.796 376.09 477.95C376.09 480.104 377.838 481.849 379.994 481.849Z" fill="#384E6D"/>
<path d="M396.998 481.849C399.154 481.849 400.902 480.104 400.902 477.95C400.902 475.796 399.154 474.05 396.998 474.05C394.841 474.05 393.093 475.796 393.093 477.95C393.093 480.104 394.841 481.849 396.998 481.849Z" fill="#384E6D"/>
<path d="M414.001 481.849C416.157 481.849 417.905 480.104 417.905 477.95C417.905 475.796 416.157 474.05 414.001 474.05C411.844 474.05 410.096 475.796 410.096 477.95C410.096 480.104 411.844 481.849 414.001 481.849Z" fill="#384E6D"/>
<path d="M430.878 481.849C433.034 481.849 434.782 480.104 434.782 477.95C434.782 475.796 433.034 474.05 430.878 474.05C428.721 474.05 426.973 475.796 426.973 477.95C426.973 480.104 428.721 481.849 430.878 481.849Z" fill="#384E6D"/>
<path d="M235.532 374.169L247.245 405.743L230.494 423.732L235.657 440.463L230.494 456.565L228.604 438.576L220.292 421.216L234.524 399.328L219.788 374.924C198.88 377.817 184.774 387.755 184.774 387.755V419.581C190.442 455.936 231.375 477.572 231.375 477.572C231.375 477.572 272.309 455.936 277.976 419.581V387.755C277.976 387.755 260.469 375.301 235.532 374.169Z" fill="#D2ECFF"/>
<path d="M237.421 379.578L247.119 405.743L230.368 423.732L235.657 440.463L230.493 456.565L228.604 438.576L220.292 421.216L234.524 399.328L222.811 379.83C206.941 381.591 194.85 387.881 190.064 390.648V419.078C194.724 447.256 222.937 466.251 231.501 471.409C240.066 466.251 268.278 447.256 272.938 419.078V390.522C267.648 387.629 254.55 380.836 237.421 379.578Z" fill="#86CBF7"/>
<path d="M269.16 382.849V415.681C269.16 420.839 268.026 425.871 265.633 430.525C259.714 442.35 246.615 464.867 226.463 474.805C229.36 476.692 231.249 477.698 231.249 477.698C231.249 477.698 272.183 456.061 277.85 419.707V387.881C277.976 387.755 274.701 385.49 269.16 382.849Z" fill="#94CBED"/>
<path opacity="0.43" d="M221.047 384.861C221.047 384.861 204.296 388.258 194.346 395.68V423.606L199.762 402.724C200.518 399.705 202.407 397.189 204.926 395.554L221.047 384.861Z" fill="#D2ECFF"/>
<path d="M555.567 461.722C580.539 461.722 600.783 441.503 600.783 416.562C600.783 391.62 580.539 371.401 555.567 371.401C530.595 371.401 510.352 391.62 510.352 416.562C510.352 441.503 530.595 461.722 555.567 461.722Z" fill="#E58E03"/>
<path d="M555.567 452.036C575.183 452.036 591.085 436.154 591.085 416.562C591.085 396.97 575.183 381.088 555.567 381.088C535.952 381.088 520.05 396.97 520.05 416.562C520.05 436.154 535.952 452.036 555.567 452.036Z" fill="#FFAE13"/>
<path d="M558.086 435.18V440.966H553.804V435.18C548.64 434.928 543.728 433.167 541.083 430.902L543.476 425.619C545.995 427.758 549.899 429.267 553.93 429.519V419.078C548.136 417.694 541.965 415.807 541.965 408.511C541.965 403.228 545.869 398.573 553.93 397.818V391.906H558.212V397.693C562.116 397.944 566.021 399.076 568.792 400.837L566.651 406.121C563.88 404.486 560.983 403.605 558.212 403.353V413.92C564.006 415.304 570.303 417.191 570.303 424.361C570.177 429.77 566.273 434.425 558.086 435.18ZM553.804 412.914V403.605C550.151 404.234 548.514 405.995 548.514 408.385C548.514 410.901 550.781 412.033 553.804 412.914ZM563.502 424.99C563.502 422.474 561.235 421.216 558.086 420.336V429.519C561.865 429.016 563.502 427.129 563.502 424.99Z" fill="#FFC466"/>
<path opacity="0.49" d="M589.573 386.874C593.1 393.29 594.989 400.586 594.989 408.385C594.989 433.293 574.711 453.546 549.773 453.546C536.297 453.546 524.08 447.633 515.767 438.199C523.45 452.288 538.312 461.722 555.441 461.722C580.379 461.722 600.657 441.469 600.657 416.562C600.782 405.114 596.5 394.799 589.573 386.874Z" fill="#BC740D"/>
<path d="M568.036 384.987C569.548 384.987 570.933 385.113 572.445 385.239C567.407 382.597 561.739 381.088 555.693 381.088C536.045 381.088 520.176 396.938 520.176 416.562C520.176 422.6 521.687 428.387 524.332 433.293C524.206 431.909 524.08 430.399 524.08 428.89C523.954 404.737 543.728 384.987 568.036 384.987Z" fill="#FFC466"/>
<path d="M603.931 581.605H515.138V639.471H603.931V581.605Z" fill="#B8DDFF"/>
<path d="M515.138 581.605L559.472 627.017L603.931 581.605H515.138Z" fill="#79B5E2"/>
<path opacity="0.55" d="M597.634 630.791L515.138 639.471H603.931V581.605L597.634 630.791Z" fill="#B8DDFF"/>
<path opacity="0.52" d="M555.945 585.253H518.79V617.331L526.095 592.927L555.945 585.253Z" fill="#D2ECFF"/>
<path d="M145.73 460.59H132.001V423.732H158.451V448.011L145.73 460.59ZM133.387 459.206H145.1L156.939 447.507V425.242H133.387V459.206Z" fill="#2B496D"/>
<path d="M146.108 459.961H144.722V447.256H157.821V448.64H146.108V459.961Z" fill="#2B496D"/>
<path d="M154.42 428.89H136.032V430.273H154.42V428.89Z" fill="#2B496D"/>
<path d="M154.42 433.418H136.032V434.802H154.42V433.418Z" fill="#2B496D"/>
<path d="M154.42 437.947H136.032V439.331H154.42V437.947Z" fill="#2B496D"/>
<path d="M154.42 442.476H136.032V443.859H154.42V442.476Z" fill="#2B496D"/>
<path d="M625.846 494.052C625.846 487.888 620.808 482.856 614.637 482.856C608.465 482.856 603.427 487.888 603.427 494.052C602.924 506.002 614.637 529.903 614.637 529.903C614.637 529.903 626.35 506.002 625.846 494.052Z" fill="#2B496D"/>
<path d="M614.763 500.593C618.38 500.593 621.312 497.664 621.312 494.052C621.312 490.439 618.38 487.51 614.763 487.51C611.146 487.51 608.213 490.439 608.213 494.052C608.213 497.664 611.146 500.593 614.763 500.593Z" fill="#192B44"/>
<path d="M493.223 391.906H444.103C438.057 391.906 433.145 387 433.145 380.962V274.539" stroke="#2B496D" stroke-miterlimit="10" stroke-dasharray="4 4"/>
<path d="M433.145 223.844C437.249 223.844 440.576 220.521 440.576 216.422C440.576 212.323 437.249 209 433.145 209C429.041 209 425.714 212.323 425.714 216.422C425.714 220.521 429.041 223.844 433.145 223.844Z" fill="#2B496D"/>
<path d="M446.747 239.065H419.417V237.681C419.417 232.272 423.699 227.995 429.115 227.995H437.049C442.465 227.995 446.747 232.272 446.747 237.681V239.065Z" fill="#2B496D"/>
<path d="M458.964 268.627H407.325C405.058 268.627 403.169 266.74 403.169 264.476C403.169 262.211 405.058 260.324 407.325 260.324H458.964C461.231 260.324 463.121 262.211 463.121 264.476C463.121 266.74 461.231 268.627 458.964 268.627Z" fill="#2B496D"/>
<path d="M458.964 254.538H407.325C405.058 254.538 403.169 252.651 403.169 250.387C403.169 248.122 405.058 246.235 407.325 246.235H458.964C461.231 246.235 463.121 248.122 463.121 250.387C463.121 252.651 461.231 254.538 458.964 254.538Z" fill="#2B496D"/>
<path d="M404.051 352.91L393.093 341.965C392.464 341.336 391.708 341.085 390.952 341.085H367.4C365.636 341.085 364.377 342.469 364.377 344.104V353.79V401.341H434.656V356.809C434.656 355.048 433.271 353.79 431.634 353.79H406.444C405.436 353.79 404.681 353.413 404.051 352.91Z" fill="#FFAE13"/>
<path d="M364.125 401.341H434.404L454.304 364.86C455.816 362.218 453.8 358.948 450.778 358.948H390.07C388.559 358.948 387.3 359.702 386.544 360.96L364.125 401.341Z" fill="#F99B00"/>
<path d="M450.904 358.948H390.196C388.685 358.948 387.426 359.702 386.67 360.96L364.125 401.341L431.256 395.302L450.904 358.948Z" fill="#F99B00"/>
<path d="M450.904 358.948L431.256 395.428L364.125 401.466H434.404L454.304 364.986C455.942 362.218 453.926 358.948 450.904 358.948Z" fill="#E88D0A"/>
<path opacity="0.52" d="M378.735 384.484L389.189 366.999C390.7 364.357 393.597 362.847 396.62 362.847H426.092L395.864 369.389C394.227 369.766 392.715 370.521 391.582 371.779L378.735 384.484Z" fill="#FCB651"/>
<path d="M586.676 283.219H494.986C491.081 283.219 487.933 286.616 487.933 290.893V314.919C487.933 319.196 491.081 322.593 494.986 322.593H586.676C590.581 322.593 593.729 319.196 593.729 314.919V290.893C593.729 286.616 590.581 283.219 586.676 283.219Z" fill="#B8DDFF"/>
<path d="M522.317 316.681H500.276C498.512 316.681 497.127 315.297 497.127 313.536V292.528C497.127 290.767 498.512 289.383 500.276 289.383H522.317C524.08 289.383 525.465 290.767 525.465 292.528V313.536C525.465 315.297 524.08 316.681 522.317 316.681Z" fill="#98CDF4"/>
<path d="M540.453 297.182C542.679 297.182 544.484 295.38 544.484 293.157C544.484 290.934 542.679 289.131 540.453 289.131C538.227 289.131 536.423 290.934 536.423 293.157C536.423 295.38 538.227 297.182 540.453 297.182Z" fill="#98CDF4"/>
<path d="M581.639 295.295H550.277C549.144 295.295 548.262 294.415 548.262 293.283C548.262 292.151 549.144 291.27 550.277 291.27H581.639C582.772 291.27 583.654 292.151 583.654 293.283C583.654 294.289 582.772 295.295 581.639 295.295Z" fill="#98CDF4"/>
<path d="M573.704 302.214H550.277C549.144 302.214 548.262 301.334 548.262 300.201C548.262 299.069 549.144 298.189 550.277 298.189H573.704C574.837 298.189 575.719 299.069 575.719 300.201C575.719 301.334 574.837 302.214 573.704 302.214Z" fill="#98CDF4"/>
<path d="M540.453 312.781C542.679 312.781 544.484 310.979 544.484 308.755C544.484 306.532 542.679 304.73 540.453 304.73C538.227 304.73 536.423 306.532 536.423 308.755C536.423 310.979 538.227 312.781 540.453 312.781Z" fill="#98CDF4"/>
<path d="M581.639 310.768H550.277C549.144 310.768 548.262 309.888 548.262 308.755C548.262 307.623 549.144 306.743 550.277 306.743H581.639C582.772 306.743 583.654 307.623 583.654 308.755C583.654 309.888 582.772 310.768 581.639 310.768Z" fill="#98CDF4"/>
<path d="M573.704 317.687H550.277C549.144 317.687 548.262 316.806 548.262 315.674C548.262 314.542 549.144 313.661 550.277 313.661H573.704C574.837 313.661 575.719 314.542 575.719 315.674C575.719 316.806 574.837 317.687 573.704 317.687Z" fill="#98CDF4"/>
<path opacity="0.45" d="M586.676 283.219V304.353C586.676 310.013 582.268 314.668 576.601 315.045L490.326 320.58C491.585 321.838 493.222 322.593 494.986 322.593H586.676C590.581 322.593 593.73 319.196 593.73 314.919V290.893C593.73 286.616 590.581 283.219 586.676 283.219Z" fill="#B8DDFF"/>
<path opacity="0.55" d="M518.916 286.993H496.119C496.119 286.993 492.719 288.125 492.719 291.27C492.719 294.415 492.719 304.478 492.719 304.478L495.742 294.163C496.371 292.025 498.135 290.389 500.402 290.012L518.916 286.993Z" fill="#E3F3FF"/>
<path d="M232.257 301.459C227.849 305.862 227.849 313.158 232.257 317.561C236.665 321.964 243.97 321.964 248.378 317.561C252.786 313.158 252.786 305.862 248.378 301.459C243.97 297.057 236.791 297.057 232.257 301.459ZM245.985 315.171C242.837 318.316 237.799 318.316 234.65 315.171C231.501 312.026 231.501 306.994 234.65 303.849C237.799 300.705 242.837 300.705 245.985 303.849C249.134 306.994 249.134 312.026 245.985 315.171Z" fill="#2B496D"/>
<path d="M248.982 314.876L245.687 318.167L255.216 327.685L258.511 324.394L248.982 314.876Z" fill="#2B496D"/>
<path d="M318.784 257.305C319.539 255.041 316.517 250.009 312.864 245.229L286.541 227.995C282.636 225.479 277.598 228.247 277.598 232.901V282.213C277.598 283.345 277.85 284.351 278.48 285.232C288.43 279.068 317.272 261.457 318.784 257.305Z" fill="#ED3237"/>
<path d="M324.199 252.651L312.864 245.229C316.516 250.135 319.665 255.167 318.784 257.305C317.272 261.457 288.43 279.068 278.354 285.106C279.991 287.748 283.644 288.88 286.541 286.993L324.325 262.337C327.726 260.073 327.726 254.915 324.199 252.651Z" fill="#C6185F"/>
<path d="M280.621 255.922V237.304C280.621 234.285 283.77 232.398 286.541 233.782L307.322 244.474L289.941 241.958C288.178 241.707 286.415 242.713 285.659 244.348L280.621 255.922Z" fill="#ED2E77"/>
<path d="M166.637 409.895C168.376 409.895 169.786 408.487 169.786 406.75C169.786 405.013 168.376 403.605 166.637 403.605C164.898 403.605 163.489 405.013 163.489 406.75C163.489 408.487 164.898 409.895 166.637 409.895Z" fill="#B8DDFF"/>
<path d="M124.948 539.464C127.035 539.464 128.727 537.774 128.727 535.69C128.727 533.606 127.035 531.916 124.948 531.916C122.862 531.916 121.17 533.606 121.17 535.69C121.17 537.774 122.862 539.464 124.948 539.464Z" fill="#B8DDFF"/>
<path d="M183.893 649.912C185.214 649.912 186.286 648.842 186.286 647.522C186.286 646.202 185.214 645.131 183.893 645.131C182.571 645.131 181.5 646.202 181.5 647.522C181.5 648.842 182.571 649.912 183.893 649.912Z" fill="#B8DDFF"/>
<path d="M479.872 410.398C481.959 410.398 483.65 408.708 483.65 406.624C483.65 404.54 481.959 402.85 479.872 402.85C477.785 402.85 476.093 404.54 476.093 406.624C476.093 408.708 477.785 410.398 479.872 410.398Z" fill="#B8DDFF"/>
<path d="M498.008 244.474C500.095 244.474 501.787 242.785 501.787 240.7C501.787 238.616 500.095 236.927 498.008 236.927C495.922 236.927 494.23 238.616 494.23 240.7C494.23 242.785 495.922 244.474 498.008 244.474Z" fill="#B8DDFF"/>
<path d="M640.079 574.183C642.166 574.183 643.857 572.493 643.857 570.409C643.857 568.325 642.166 566.635 640.079 566.635C637.992 566.635 636.3 568.325 636.3 570.409C636.3 572.493 637.992 574.183 640.079 574.183Z" fill="#B8DDFF"/>
<path d="M622.698 437.821C627.567 437.821 631.514 433.879 631.514 429.016C631.514 424.152 627.567 420.21 622.698 420.21C617.829 420.21 613.881 424.152 613.881 429.016C613.881 433.879 617.829 437.821 622.698 437.821Z" stroke="#B8DDFF" stroke-miterlimit="10"/>
<path d="M175.958 466.628C180.827 466.628 184.774 462.686 184.774 457.823C184.774 452.959 180.827 449.017 175.958 449.017C171.089 449.017 167.141 452.959 167.141 457.823C167.141 462.686 171.089 466.628 175.958 466.628Z" stroke="#B8DDFF" stroke-miterlimit="10"/>
<path d="M109.709 619.972C113.395 619.972 116.384 616.987 116.384 613.305C116.384 609.623 113.395 606.638 109.709 606.638C106.022 606.638 103.033 609.623 103.033 613.305C103.033 616.987 106.022 619.972 109.709 619.972Z" stroke="#B8DDFF" stroke-miterlimit="10"/>
<path d="M366.266 299.195C370.092 299.195 373.193 296.097 373.193 292.276C373.193 288.455 370.092 285.358 366.266 285.358C362.44 285.358 359.339 288.455 359.339 292.276C359.339 296.097 362.44 299.195 366.266 299.195Z" stroke="#B8DDFF" stroke-miterlimit="10"/>
<path d="M300.395 406.75C302.969 406.75 305.055 404.666 305.055 402.095C305.055 399.525 302.969 397.441 300.395 397.441C297.821 397.441 295.735 399.525 295.735 402.095C295.735 404.666 297.821 406.75 300.395 406.75Z" stroke="#B8DDFF" stroke-miterlimit="10"/>
<path d="M582.268 556.194C586.929 556.194 590.707 552.421 590.707 547.766C590.707 543.111 586.929 539.338 582.268 539.338C577.608 539.338 573.83 543.111 573.83 547.766C573.83 552.421 577.608 556.194 582.268 556.194Z" stroke="#B8DDFF" stroke-miterlimit="10"/>
<path d="M350.649 370.269H346.24V365.866C346.24 365.237 345.737 364.734 345.107 364.734C344.477 364.734 343.973 365.237 343.973 365.866V370.269H339.565C338.935 370.269 338.432 370.772 338.432 371.401C338.432 372.03 338.935 372.534 339.565 372.534H343.973V376.936C343.973 377.565 344.477 378.069 345.107 378.069C345.737 378.069 346.24 377.565 346.24 376.936V372.534H350.649C351.278 372.534 351.782 372.03 351.782 371.401C351.656 370.772 351.152 370.269 350.649 370.269Z" fill="#B8DDFF"/>
<path d="M204.926 352.658H201.274V349.01C201.274 348.507 200.896 348.129 200.392 348.129C199.888 348.129 199.51 348.507 199.51 349.01V352.658H195.858C195.354 352.658 194.976 353.035 194.976 353.539C194.976 354.042 195.354 354.419 195.858 354.419H199.51V358.067C199.51 358.57 199.888 358.948 200.392 358.948C200.896 358.948 201.274 358.57 201.274 358.067V354.419H204.926C205.43 354.419 205.808 354.042 205.808 353.539C205.808 353.035 205.43 352.658 204.926 352.658Z" fill="#B8DDFF"/>
<path d="M613 360.08H609.347V356.432C609.347 355.929 608.969 355.551 608.466 355.551C607.962 355.551 607.584 355.929 607.584 356.432V360.08H603.931C603.428 360.08 603.05 360.457 603.05 360.96C603.05 361.464 603.428 361.841 603.931 361.841H607.584V365.489C607.584 365.992 607.962 366.37 608.466 366.37C608.969 366.37 609.347 365.992 609.347 365.489V361.841H613C613.504 361.841 613.881 361.464 613.881 360.96C613.881 360.457 613.504 360.08 613 360.08Z" fill="#B8DDFF"/>
<path d="M490.704 634.187H487.051V630.539C487.051 630.036 486.673 629.659 486.17 629.659C485.666 629.659 485.288 630.036 485.288 630.539V634.187H481.636C481.132 634.187 480.754 634.565 480.754 635.068C480.754 635.571 481.132 635.948 481.636 635.948H485.288V639.596C485.288 640.1 485.666 640.477 486.17 640.477C486.673 640.477 487.051 640.1 487.051 639.596V635.948H490.704C491.208 635.948 491.585 635.571 491.585 635.068C491.585 634.69 491.208 634.187 490.704 634.187Z" fill="#B8DDFF"/>
<path d="M110.212 459.206H106.56V455.558C106.56 455.055 106.182 454.678 105.678 454.678C105.174 454.678 104.797 455.055 104.797 455.558V459.206H101.144C100.64 459.206 100.262 459.584 100.262 460.087C100.262 460.59 100.64 460.967 101.144 460.967H104.797V464.616C104.797 465.119 105.174 465.496 105.678 465.496C106.182 465.496 106.56 465.119 106.56 464.616V460.967H110.212C110.716 460.967 111.094 460.59 111.094 460.087C111.094 459.584 110.716 459.206 110.212 459.206Z" fill="#B8DDFF"/>
<path d="M158.954 724.005C158.954 724.005 156.687 725.011 157.947 728.785C159.206 732.559 161.347 736.459 161.347 736.459L171.171 734.194L173.439 721.866L158.954 724.005Z" fill="#E5BFAA"/>
<path d="M289.06 484.994C290.949 487.888 293.468 490.404 296.742 491.787C300.017 493.045 303.796 493.045 306.692 491.158C309.589 489.397 311.226 486.252 312.612 483.233C315.383 477.195 317.65 470.905 319.413 464.49C313.368 460.087 306.189 458.577 298.758 457.948C296.616 457.823 294.349 457.823 292.334 458.703C288.682 460.339 287.044 464.616 286.037 468.515C284.777 474.302 285.911 479.963 289.06 484.994Z" fill="#E5BFAA"/>
<path d="M289.185 473.17L275.457 489.523L288.052 503.486L298.632 479.963L289.185 473.17Z" fill="#E5BFAA"/>
<path d="M330.497 464.364C329.993 459.584 325.711 459.206 323.066 456.942C318.531 452.791 320.799 443.985 315.761 440.337C312.864 438.199 308.833 438.828 305.559 440.211C302.284 441.595 299.261 443.734 295.861 444.614C292.208 445.495 288.43 444.866 284.651 445.117C280.873 445.369 276.842 447.13 275.709 450.778C274.827 453.671 276.213 456.69 277.22 459.584C277.346 460.087 277.598 460.464 277.724 460.716C279.235 463.609 280.369 466.628 280.495 469.899C280.621 471.786 280.621 473.547 280.747 475.434C280.873 476.943 280.999 478.705 282.258 479.711C283.77 480.843 286.037 480.214 287.296 478.705C288.556 477.195 288.808 475.308 289.185 473.421C287.674 471.912 288.052 468.893 289.311 467.257C290.697 465.622 293.216 465.37 294.979 466.628C294.853 468.641 297.498 470.528 299.513 470.528C301.528 470.528 303.418 469.396 305.307 468.515C307.196 467.635 309.337 466.88 311.226 467.509C312.738 468.012 313.745 469.27 315.005 470.151C318.783 473.295 324.829 474.302 328.607 470.402C330.119 468.767 330.749 466.502 330.497 464.364Z" fill="#155075"/>
<path d="M329.111 558.081C330.875 555.817 332.89 553.804 335.031 552.043C335.535 551.666 336.164 551.163 336.794 551.163C337.928 551.163 338.683 552.546 338.18 553.427C338.809 552.798 339.439 552.421 340.195 552.043C341.076 551.666 342.084 551.666 342.84 552.295C343.092 552.546 343.344 552.924 343.595 553.175C343.973 553.678 344.603 553.93 344.981 554.433C345.359 554.936 345.611 555.565 345.359 556.069C346.114 556.572 346.87 557.326 346.744 558.207C346.744 559.088 346.114 559.842 345.233 560.22C345.107 561.352 344.225 561.981 343.218 562.484C339.565 564.119 335.535 565.377 331.756 564.371C330.623 564.119 329.363 563.49 328.608 562.484C328.104 561.604 328.356 559.088 329.111 558.081Z" fill="#E5BFAA"/>
<path d="M218.276 558.584C218.276 558.584 188.678 575.818 193.213 656.327L155.428 728.156H173.691L225.959 664.378C228.1 661.736 229.738 658.717 230.871 655.447L245.607 612.173L218.276 558.584Z" fill="#1B1A23"/>
<path d="M218.276 558.584C218.276 558.584 200.14 569.151 194.472 612.173C202.533 629.156 215.632 643.748 231.501 653.686L245.607 612.173L218.276 558.584Z" fill="#14141C"/>
<path d="M275.205 724.005C275.205 724.005 272.938 725.011 274.198 728.785C275.457 732.559 277.598 736.459 277.598 736.459L287.422 734.194L289.689 721.866L275.205 724.005Z" fill="#E5BFAA"/>
<path d="M288.052 726.772L305.307 736.962L306.314 743.126H272.182L273.82 727.276C273.82 727.276 277.346 734.572 279.865 733.565C282.258 732.559 288.052 726.772 288.052 726.772Z" fill="#272530"/>
<path d="M274.072 726.018H291.075C300.773 707.652 326.97 657.082 324.829 648.151C322.058 637.206 251.149 591.794 251.149 591.794L218.402 558.584C217.899 560.346 186.034 586.763 202.029 612.676C217.899 638.59 285.785 655.824 285.785 655.824L274.072 726.018Z" fill="#272530"/>
<path d="M296.239 511.915C292.838 501.725 281.125 492.165 281.125 492.165C281.125 492.165 273.442 497.071 268.53 511.034C273.316 513.676 278.732 514.934 284.147 514.808C288.304 514.808 292.46 513.676 296.239 511.915Z" fill="#272530"/>
<path d="M273.82 484.994C273.82 484.994 291.075 498.203 291.075 512.292C291.075 526.381 251.023 591.794 251.023 591.794C251.023 591.794 229.612 581.353 218.276 558.584C218.276 558.584 242.459 490.026 273.82 484.994Z" fill="#272530"/>
<path d="M266.011 487.51C263.996 488.517 262.107 489.775 260.217 491.158C266.011 504.115 276.087 515.059 288.682 521.727C290.193 517.953 291.075 514.808 291.075 512.669C280.621 506.757 271.931 497.951 266.011 487.51Z" fill="#807F87"/>
<path d="M260.217 491.158C255.935 494.303 251.905 498.454 248 503.109C250.897 511.914 256.061 519.84 262.862 526.129C268.278 531.035 274.575 534.935 281.503 537.451C284.399 531.664 286.918 526.129 288.556 521.726C276.087 515.059 265.885 504.115 260.217 491.158Z" fill="#272530"/>
<path d="M262.988 526.129C256.187 519.84 251.023 511.789 248.126 503.109C246.111 505.625 244.096 508.266 242.207 511.034C250.393 525.375 263.618 536.822 278.984 542.734C279.865 540.973 280.747 539.212 281.628 537.451C274.701 534.935 268.278 531.161 262.988 526.129Z" fill="#807F87"/>
<path d="M248.126 547.892C241.073 542.86 235.531 535.816 232.131 527.765C230.241 531.161 228.604 534.558 227.093 537.828C230.997 545.25 237.672 551.037 245.355 554.685C252.786 558.333 260.973 559.968 269.286 560.723C270.041 559.339 270.797 557.955 271.553 556.572C263.114 555.817 254.927 552.798 248.126 547.892Z" fill="#807F87"/>
<path d="M221.551 550.282C219.41 555.314 218.276 558.584 218.276 558.584C229.612 581.353 251.023 591.794 251.023 591.794C251.023 591.794 254.424 586.134 259.336 577.957C251.905 576.322 244.6 574.183 238.05 570.409C230.367 566.006 223.818 558.836 221.551 550.282Z" fill="#807F87"/>
<path d="M242.207 511.034C238.428 516.443 235.027 522.23 232.131 527.89C235.531 535.816 241.073 542.86 248.126 548.018C254.927 552.924 263.114 555.943 271.553 556.698C274.072 552.043 276.591 547.389 278.984 542.86C263.492 536.696 250.267 525.375 242.207 511.034Z" fill="#272530"/>
<path d="M273.82 484.994C271.175 485.372 268.53 486.378 266.011 487.636C271.931 498.077 280.621 506.883 291.075 512.669C291.075 512.543 291.075 512.418 291.075 512.292C291.075 498.203 273.82 484.994 273.82 484.994Z" fill="#272530"/>
<path d="M281.125 492.29C281.125 492.29 295.735 504.115 296.994 515.437C298.38 526.758 297.498 558.584 297.498 558.584C297.498 558.584 314.753 562.736 329.867 556.32L333.52 565C333.52 565 300.269 580.473 287.548 577.328C274.827 574.183 265.129 549.653 264.752 541.351C262.988 503.864 281.125 492.29 281.125 492.29Z" fill="#272530"/>
<path d="M282.762 522.481C287.926 522.23 292.964 520.469 297.246 517.575C297.246 516.821 297.12 516.066 296.994 515.437C296.868 514.305 296.49 513.172 296.113 511.914C292.334 513.676 288.178 514.682 284.022 514.808C278.606 514.934 273.19 513.676 268.404 511.034C267.648 513.298 266.892 515.688 266.389 518.33C271.301 521.349 277.094 522.733 282.762 522.481Z" fill="#807F87"/>
<path d="M281.755 546.886C287.296 546.257 292.586 544.37 297.75 541.98C297.75 540.093 297.75 538.08 297.75 536.067C287.17 540.47 274.575 539.967 264.625 534.432C264.625 536.696 264.625 538.96 264.751 541.351C264.751 541.98 264.877 542.86 265.003 543.741C269.915 546.634 276.087 547.514 281.755 546.886Z" fill="#807F87"/>
<path d="M297.75 541.98C292.712 544.37 287.296 546.257 281.755 546.886C275.961 547.514 269.915 546.634 265.003 543.741C265.885 548.772 268.782 556.949 273.064 563.868C281.881 563.365 290.571 560.22 297.624 554.811C297.624 551.792 297.75 547.137 297.75 541.98Z" fill="#272530"/>
<path d="M299.891 559.088C298.38 558.836 297.498 558.584 297.498 558.584C297.498 558.584 297.498 557.201 297.624 554.811C290.571 560.22 281.88 563.365 273.064 563.868C275.205 567.39 277.724 570.661 280.495 573.177C288.052 570.409 294.853 565.377 299.891 559.088Z" fill="#807F87"/>
<path d="M299.891 559.088C294.853 565.377 288.052 570.409 280.369 573.177C282.636 575.189 284.903 576.699 287.422 577.328C291.201 578.334 296.868 577.579 302.914 576.07C306.441 571.29 308.834 565.755 309.841 559.968C305.685 559.842 302.158 559.465 299.891 559.088Z" fill="#272530"/>
<path d="M316.39 559.591C314.123 559.842 311.856 559.968 309.841 559.842C308.833 565.629 306.44 571.164 302.914 575.944C306.692 575.064 310.597 573.806 314.249 572.548C315.635 568.396 316.39 563.994 316.39 559.591Z" fill="#807F87"/>
<path d="M329.867 556.32C325.459 558.207 320.799 559.213 316.516 559.591C316.516 563.994 315.761 568.396 314.375 572.548C324.703 569.025 333.519 564.874 333.519 564.874L329.867 556.32Z" fill="#272530"/>
<path opacity="0.48" d="M287.548 572.296C277.22 568.271 264.751 541.351 264.751 541.351C265.129 549.527 274.827 574.057 287.548 577.328C300.269 580.473 333.519 565 333.519 565C333.519 565 297.75 576.196 287.548 572.296Z" fill="#272530"/>
<path opacity="0.48" d="M222.936 557.326C233.516 529.652 255.557 493.926 274.072 485.12C273.946 484.994 273.82 484.994 273.82 484.994C242.459 490.026 218.276 558.584 218.276 558.584C229.612 581.353 251.023 591.794 251.023 591.794C230.997 577.705 222.936 557.326 222.936 557.326Z" fill="#272530"/>
<path d="M295.987 560.094C295.483 547.011 294.979 534.054 294.349 520.972C294.223 516.82 293.972 512.543 292.208 508.77C290.445 504.996 286.541 501.851 282.384 501.977C288.682 510.028 290.949 520.343 292.334 530.406C293.594 540.596 293.846 548.018 295.987 560.094Z" fill="#B4B3C6"/>
<path d="M235.28 549.905C234.02 553.175 232.761 556.698 233.138 560.346C233.768 564.497 236.539 567.893 239.688 570.535C242.837 573.177 246.489 575.315 249.386 578.334C247.371 565.126 249.26 551.666 253.038 538.835C256.817 526.004 262.485 513.927 268.026 501.851C268.152 501.725 263.366 502.731 262.862 502.983C261.855 503.486 260.973 503.989 260.091 504.744C257.447 507.386 255.431 511.286 253.416 514.43C248.882 521.601 244.726 529.023 241.073 536.696C239.058 540.973 237.169 545.376 235.28 549.905Z" fill="#B4B3C6"/>
<path d="M274.072 726.018H277.724C284.022 699.601 291.201 675.448 296.239 648.276C282.006 646.515 265.759 640.477 252.157 636.074C239.31 631.923 226.589 626.388 216.513 617.457C207.193 609.028 200.266 597.204 199.888 584.75C196.613 593.304 195.858 602.99 201.903 612.676C217.773 638.59 285.659 655.824 285.659 655.824L274.072 726.018Z" fill="#21202B"/>
<path opacity="0.46" d="M304.551 635.445C292.712 631.671 280.873 627.646 270.041 621.23C264.626 618.086 259.588 614.312 255.179 610.035C253.542 608.399 243.214 598.461 247.371 596.449C249.386 595.442 253.92 599.971 255.557 601.103C258.706 603.368 261.981 605.632 265.129 607.896C271.301 612.173 277.346 616.45 283.518 620.727C290.571 625.633 297.624 630.539 304.551 635.445Z" fill="#343244"/>
<path d="M172.179 725.011C171.675 715.954 177.469 707.903 183.137 700.859C188.804 693.563 194.598 686.141 200.266 678.845C203.037 675.196 205.933 671.548 208.704 667.9C210.216 665.888 213.364 659.849 216.261 660.353C214.624 665.888 209.838 671.8 206.815 676.706C203.288 682.367 199.762 687.902 195.983 693.311C188.552 704.255 180.618 714.822 172.179 725.011Z" fill="#22212D"/>
<path d="M171.801 726.772L189.056 736.962L190.064 743.126H155.932L157.569 727.276C157.569 727.276 161.096 734.572 163.615 733.565C166.008 732.559 171.801 726.772 171.801 726.772Z" fill="#272530"/>
<path d="M315.509 472.918C313.62 475.937 312.612 479.459 311.101 482.73C309.589 486.001 307.448 489.146 304.173 490.655C300.899 492.165 296.491 491.661 294.601 488.517C297.372 490.278 301.277 489.9 304.047 488.265C306.818 486.63 308.959 483.862 310.597 481.095C312.36 478.327 313.62 475.56 315.509 472.918Z" fill="#F7DACB"/>
<path d="M279.487 458.074C278.732 456.439 278.606 454.3 279.613 452.791C280.999 450.527 284.022 450.023 286.666 450.275C289.311 450.527 291.956 451.281 294.475 450.904C297.372 450.401 299.639 448.388 302.032 446.627C304.425 444.866 307.196 443.356 310.093 443.859C313.62 444.488 315.761 448.011 317.02 451.407C318.28 454.804 319.161 458.452 321.806 460.842C322.688 461.596 323.695 462.1 324.451 462.98C325.207 463.735 325.837 464.867 325.585 465.999C325.081 467.886 322.562 468.389 320.547 468.389C321.68 467.886 321.806 466.125 321.05 465.119C320.295 464.112 319.035 463.483 317.902 462.854C315.635 461.471 313.997 459.206 313.116 456.816C312.612 455.307 312.36 453.546 311.856 452.036C311.352 450.527 310.345 449.017 308.708 448.388C306.566 447.633 304.173 448.891 302.536 450.401C300.899 451.91 299.135 453.671 296.994 454.3C294.097 455.055 290.823 453.546 287.8 454.049C285.407 454.552 283.518 456.69 282.888 458.955C282.636 459.835 283.14 461.848 282.258 461.974C281.503 461.974 279.865 458.703 279.487 458.074Z" fill="#1E6284"/>
<defs>
<linearGradient id="paint0_linear" x1="0" y1="371.494" x2="696" y2="371.494" gradientUnits="userSpaceOnUse">
<stop stop-color="#2F4D9F"/>
<stop offset="0.5072" stop-color="#1B1B28" stop-opacity="0.7"/>
<stop offset="1" stop-color="#2F4D9F"/>
</linearGradient>
</defs>
</svg>
