<svg width="37" height="23" viewBox="0 0 37 23" fill="none" xmlns="http://www.w3.org/2000/svg">
<path d="M0.817871 7.54061C1.044 6.96658 1.50496 6.67087 2.05289 6.45344C6.36677 4.72267 10.6806 2.9919 14.9945 1.26983C15.8817 0.913236 16.7427 0.460975 17.7168 0.34791C18.7779 0.21745 19.8215 0.278331 20.8217 0.687106C25.614 2.60922 30.4149 4.53133 35.2071 6.45344C35.7551 6.67087 36.216 6.96658 36.4422 7.54061C36.4422 7.77544 36.4422 8.00157 36.4422 8.23639C36.1725 8.80172 35.6855 9.08873 35.1376 9.30617C34.2939 9.63666 33.459 9.98456 32.6153 10.3064C32.3631 10.402 32.2848 10.5412 32.2848 10.7934C32.3022 11.4283 32.2935 12.0632 32.2848 12.6981C32.2761 13.2287 32.0065 13.5244 31.5543 13.5244C31.1194 13.5157 30.8498 13.22 30.8498 12.7155C30.8411 12.2546 30.8411 11.7936 30.8498 11.3239C30.8498 11.1065 30.8063 11.0195 30.5715 11.1152C29.9713 11.3674 29.3712 11.611 28.7624 11.8371C28.5102 11.9328 28.5276 12.1067 28.5276 12.3067C28.5276 15.1508 28.5276 18.0035 28.5276 20.8475C28.5276 21.639 28.3884 21.7955 27.6057 21.9695C24.118 22.7175 20.5869 22.9523 17.0297 22.8044C14.5162 22.7088 12.0287 22.3609 9.57609 21.7781C8.85421 21.6042 8.71505 21.439 8.71505 20.7084C8.71505 17.9165 8.70635 15.1334 8.72375 12.3415C8.72375 12.0371 8.62808 11.898 8.34976 11.7849C6.29719 10.9761 4.26202 10.1585 2.21814 9.34096C1.63542 9.11482 1.10488 8.83651 0.817871 8.23639C0.817871 8.00157 0.817871 7.77544 0.817871 7.54061ZM29.1973 10.1063C29.1364 10.0628 29.1364 10.0454 29.119 10.0454C26.4837 9.32356 23.8484 8.61038 21.2131 7.8798C21.0305 7.82762 20.9435 7.8972 20.8304 8.02766C19.8302 9.22789 18.1169 9.42793 16.8645 8.50601C15.9425 7.82762 15.7512 6.67087 16.4035 5.78374C17.482 4.31389 20.1086 4.47045 20.9783 6.07076C21.0914 6.27949 21.2305 6.37516 21.4479 6.42735C24.7008 7.30578 27.9536 8.19291 31.2064 9.08873C31.4325 9.14961 31.6325 9.14092 31.8413 9.05394C32.7023 8.70605 33.5633 8.36685 34.4244 8.01896C34.5113 7.98417 34.6331 7.98417 34.6853 7.84501C34.6244 7.81022 34.5635 7.78413 34.5026 7.75804C29.7713 5.85332 25.0399 3.94861 20.3086 2.06128C19.1866 1.61772 18.0386 1.62642 16.9166 2.06998C12.2027 3.9573 7.49742 5.84463 2.78347 7.74065C2.70519 7.76674 2.59213 7.76674 2.58343 7.90589C2.65301 7.94068 2.73128 7.96678 2.80086 8.00157C7.53221 9.89758 12.2636 11.8023 17.0036 13.6809C18.0908 14.1158 19.204 14.0984 20.2999 13.6635C22.0568 12.9764 23.8049 12.2633 25.5618 11.5588C26.762 11.0804 27.9623 10.6021 29.1973 10.1063ZM27.0925 15.2464C27.0925 14.4811 27.0925 13.7157 27.0925 12.959C27.0925 12.5416 27.0925 12.5416 26.6837 12.6981C24.7442 13.4722 22.8134 14.2463 20.8739 15.0203C19.3867 15.6117 17.8907 15.6204 16.4035 15.029C14.4466 14.255 12.4897 13.4635 10.5328 12.6807C10.3154 12.5938 10.1675 12.5329 10.1675 12.8808C10.1762 14.3941 10.1762 15.9161 10.1675 17.4295C10.1675 17.6382 10.2371 17.7426 10.4458 17.7861C12.5419 18.2383 14.664 18.534 16.8123 18.6297C17.9255 18.6819 19.0388 18.7341 20.152 18.708C20.6565 18.6993 20.9522 18.9863 20.9522 19.4212C20.9522 19.856 20.6478 20.1343 20.152 20.143C18.8909 20.1604 17.6298 20.1604 16.3687 20.0822C14.5771 19.9691 12.7941 19.7604 11.0285 19.3951C10.1501 19.2124 10.1588 19.2211 10.1675 20.1257C10.1675 20.3605 10.2545 20.4475 10.4719 20.4996C11.7504 20.7693 13.0376 21.0041 14.3422 21.1432C16.2991 21.352 18.2647 21.439 20.239 21.3781C22.2829 21.3172 24.3094 21.1258 26.3185 20.7519C27.1186 20.604 27.1099 20.604 27.1012 19.7778C27.1012 19.4821 26.9795 19.4212 26.7185 19.4734C26.2141 19.569 25.7183 19.6647 25.2139 19.7256C24.7094 19.7865 24.3616 19.5516 24.3094 19.1342C24.2485 18.7167 24.5007 18.3949 24.9965 18.2905C25.5792 18.1688 26.1532 18.0557 26.7359 17.9774C27.0403 17.9339 27.1099 17.7948 27.1012 17.5165C27.0838 16.7511 27.0925 16.0031 27.0925 15.2464ZM18.63 7.59279C18.9605 7.61019 19.2823 7.50582 19.5519 7.25359C19.7868 7.03616 19.7868 6.82743 19.5693 6.5926C19.1084 6.09685 18.0647 6.12294 17.6211 6.63608C17.4385 6.85352 17.4472 7.05356 17.6472 7.2449C17.9081 7.49712 18.2299 7.60149 18.63 7.59279Z" fill="#868686"/>
<path d="M32.2932 14.8551C32.2932 15.2725 31.9714 15.603 31.58 15.603C31.1713 15.603 30.8582 15.2725 30.8582 14.8638C30.8582 14.455 31.18 14.1245 31.5713 14.1245C31.9801 14.1158 32.2845 14.4376 32.2932 14.8551Z" fill="#868686"/>
<path d="M22.9696 19.9778C22.5782 19.9691 22.239 19.6126 22.2477 19.2299C22.2651 18.8559 22.6043 18.5254 22.9783 18.5254C23.3871 18.5254 23.735 18.882 23.7176 19.2908C23.6915 19.656 23.3349 19.9865 22.9696 19.9778Z" fill="#868686"/>
</svg>
