<svg width="33" height="22" viewBox="0 0 33 22" fill="none" xmlns="http://www.w3.org/2000/svg">
<path d="M0.202637 7.40113C0.408516 6.87851 0.828192 6.60929 1.32705 6.41133C5.25459 4.83556 9.18213 3.25979 13.1097 1.69194C13.9173 1.36729 14.7013 0.955531 15.5881 0.852592C16.5542 0.733815 17.5044 0.789244 18.415 1.16141C22.7781 2.91138 27.149 4.66136 31.5121 6.41133C32.011 6.60929 32.4306 6.87851 32.6365 7.40113C32.6365 7.61493 32.6365 7.82081 32.6365 8.0346C32.391 8.5493 31.9476 8.81061 31.4487 9.00857C30.6807 9.30947 29.9205 9.62621 29.1524 9.91919C28.9228 10.0063 28.8515 10.133 28.8515 10.3626C28.8673 10.9407 28.8594 11.5187 28.8515 12.0968C28.8436 12.5798 28.5981 12.849 28.1864 12.849C27.7904 12.8411 27.545 12.5719 27.545 12.1126C27.537 11.6929 27.537 11.2732 27.545 10.8456C27.545 10.6477 27.5054 10.5685 27.2916 10.6556C26.7452 10.8852 26.1988 11.107 25.6445 11.3128C25.4149 11.3999 25.4307 11.5583 25.4307 11.7404C25.4307 14.3298 25.4307 16.927 25.4307 19.5163C25.4307 20.2369 25.304 20.3794 24.5914 20.5378C21.4161 21.2188 18.2012 21.4326 14.9626 21.298C12.6742 21.2109 10.4095 20.8941 8.17649 20.3636C7.51926 20.2052 7.39257 20.0548 7.39257 19.3896C7.39257 16.8478 7.38465 14.3139 7.40049 11.7721C7.40049 11.495 7.31338 11.3683 7.05999 11.2653C5.19124 10.5289 3.33833 9.78458 1.4775 9.04024C0.946969 8.83437 0.463945 8.58098 0.202637 8.0346C0.202637 7.82081 0.202637 7.61493 0.202637 7.40113ZM26.0405 9.73707C25.985 9.69747 25.985 9.68164 25.9692 9.68164C23.5699 9.02441 21.1706 8.3751 18.7713 7.70995C18.6051 7.66244 18.5259 7.72579 18.4229 7.84456C17.5123 8.93731 15.9524 9.11943 14.8121 8.28008C13.9728 7.66244 13.7986 6.60929 14.3925 5.80161C15.3743 4.46339 17.7657 4.60593 18.5575 6.06292C18.6605 6.25296 18.7872 6.34006 18.9851 6.38757C21.9466 7.18733 24.9081 7.99501 27.8696 8.81061C28.0755 8.86604 28.2576 8.85812 28.4477 8.77894C29.2316 8.4622 30.0155 8.15338 30.7994 7.83664C30.8786 7.80497 30.9895 7.80497 31.037 7.67828C30.9816 7.6466 30.9261 7.62285 30.8707 7.59909C26.5631 5.86496 22.2555 4.13082 17.9478 2.41252C16.9264 2.00868 15.8811 2.0166 14.8596 2.42044C10.5679 4.13874 6.28399 5.85704 1.9922 7.58325C1.92094 7.60701 1.818 7.60701 1.81008 7.7337C1.87342 7.76538 1.94469 7.78913 2.00804 7.82081C6.31566 9.54702 10.6233 11.2812 14.9388 12.9915C15.9286 13.3875 16.9422 13.3716 17.9399 12.9757C19.5394 12.3501 21.131 11.7008 22.7306 11.0594C23.8233 10.6239 24.916 10.1884 26.0405 9.73707ZM24.1242 14.4169C24.1242 13.72 24.1242 13.0232 24.1242 12.3343C24.1242 11.9542 24.1242 11.9542 23.752 12.0968C21.9862 12.8015 20.2283 13.5062 18.4625 14.211C17.1085 14.7494 15.7465 14.7573 14.3925 14.2189C12.6108 13.5142 10.8292 12.7936 9.04752 12.0809C8.84956 12.0017 8.71494 11.9463 8.71494 12.263C8.72286 13.6409 8.72286 15.0266 8.71494 16.4044C8.71494 16.5944 8.77829 16.6894 8.96833 16.729C10.8767 17.1408 12.8088 17.41 14.7646 17.4971C15.7782 17.5446 16.7917 17.5921 17.8053 17.5684C18.2646 17.5605 18.5338 17.8218 18.5338 18.2177C18.5338 18.6136 18.2566 18.867 17.8053 18.8749C16.6571 18.8908 15.509 18.8908 14.3608 18.8195C12.7296 18.7166 11.1063 18.5265 9.49887 18.1939C8.69911 18.0277 8.70703 18.0356 8.71494 18.8591C8.71494 19.0729 8.79413 19.1521 8.99209 19.1996C10.1561 19.4451 11.328 19.6589 12.5158 19.7855C14.2974 19.9756 16.087 20.0548 17.8845 19.9993C19.7453 19.9439 21.5903 19.7697 23.4195 19.4292C24.148 19.2946 24.14 19.2946 24.1321 18.5424C24.1321 18.2731 24.0213 18.2177 23.7837 18.2652C23.3244 18.3523 22.8731 18.4394 22.4138 18.4948C21.9546 18.5503 21.6378 18.3365 21.5903 17.9564C21.5349 17.5763 21.7645 17.2833 22.2159 17.1883C22.7464 17.0774 23.269 16.9745 23.7995 16.9032C24.0767 16.8636 24.14 16.737 24.1321 16.4836C24.1163 15.7867 24.1242 15.1058 24.1242 14.4169ZM16.4196 7.44864C16.7205 7.46448 17.0135 7.36946 17.2589 7.13982C17.4727 6.94186 17.4727 6.75182 17.2748 6.53802C16.8551 6.08667 15.9049 6.11043 15.501 6.57761C15.3347 6.77558 15.3427 6.9577 15.5248 7.1319C15.7623 7.36154 16.0553 7.45656 16.4196 7.44864Z" fill="#868686"/>
<path d="M28.859 14.0605C28.859 14.4406 28.5661 14.7415 28.2097 14.7415C27.8376 14.7415 27.5525 14.4406 27.5525 14.0684C27.5525 13.6963 27.8455 13.3954 28.2018 13.3954C28.574 13.3874 28.8511 13.6804 28.859 14.0605Z" fill="#868686"/>
<path d="M20.3705 18.7245C20.0142 18.7166 19.7054 18.3919 19.7133 18.0435C19.7291 17.703 20.0379 17.4021 20.3784 17.4021C20.7506 17.4021 21.0673 17.7268 21.0515 18.0989C21.0277 18.4315 20.7031 18.7324 20.3705 18.7245Z" fill="#868686"/>
</svg>
