<svg width="29" height="26" viewBox="0 0 29 26" fill="none" xmlns="http://www.w3.org/2000/svg">
<path d="M0.793457 10.6033C0.89991 10.4117 1.05604 10.2697 1.22637 10.142C5.44191 7.06194 9.65745 3.9748 13.873 0.887662C14.2775 0.596691 14.5614 0.596691 14.9659 0.887662C19.1885 3.9748 23.4112 7.06904 27.6338 10.1562C27.8041 10.2768 27.9461 10.4188 28.0454 10.6033C28.0454 10.7594 28.0454 10.9226 28.0454 11.0859C27.7403 11.6607 27.3003 11.753 26.7538 11.3484C23.6028 9.04196 20.4589 6.73548 17.3079 4.429C16.4137 3.77609 15.5124 3.12318 14.6253 2.46317C14.4691 2.34962 14.3698 2.34962 14.2136 2.46317C10.2181 5.39417 6.21546 8.32518 2.21283 11.2491C2.14896 11.2988 2.08509 11.3414 2.02122 11.391C1.51734 11.7388 1.08443 11.6323 0.793457 11.0788C0.793457 10.9226 0.793457 10.7665 0.793457 10.6033Z" fill="#868686"/>
<path d="M3.76001 18.2892C3.76001 16.3375 3.76001 14.3859 3.76001 12.4342C3.76001 11.9871 3.93743 11.7104 4.28518 11.5968C4.73228 11.4549 5.18648 11.7529 5.22906 12.2213C5.23616 12.3349 5.23616 12.4484 5.23616 12.5691C5.23616 16.0962 5.23616 19.6305 5.23616 23.1576C5.23616 23.5195 5.23616 23.5266 5.6052 23.5266C7.23038 23.5266 8.84846 23.5266 10.4736 23.5266C10.8498 23.5266 10.8498 23.5266 10.8498 23.1363C10.8498 21.2273 10.8427 19.3253 10.8498 17.4162C10.8569 15.7982 11.9285 14.4072 13.4827 13.9672C15.5479 13.3852 17.6983 14.8188 17.9608 16.9408C17.9892 17.182 18.0034 17.4162 18.0034 17.6575C18.0034 19.4956 18.0034 21.3266 18.0034 23.1647C18.0034 23.5195 18.0034 23.5195 18.3583 23.5195C19.9976 23.5195 21.637 23.5125 23.2835 23.5266C23.5603 23.5266 23.6241 23.4415 23.6241 23.1789C23.617 19.6518 23.617 16.1175 23.617 12.5904C23.617 12.4768 23.617 12.3562 23.6241 12.2426C23.6454 11.8807 23.9009 11.611 24.2558 11.5613C24.5751 11.5116 24.9158 11.7246 25.0293 12.0439C25.0861 12.2 25.0861 12.3562 25.0861 12.5194C25.0861 16.3588 25.0861 20.1982 25.0861 24.0447C25.0861 24.7544 24.8235 25.0241 24.1067 25.0241C21.8996 25.0241 19.6925 25.0241 17.4783 25.0241C16.9105 25.0241 16.5202 24.7686 16.5273 24.066C16.5486 21.9582 16.5344 19.8434 16.5344 17.7356C16.5344 17.4517 16.5202 17.1679 16.4492 16.8911C16.1724 15.8549 15.2782 15.2588 14.1498 15.3511C13.2343 15.4291 12.4537 16.2453 12.3614 17.2388C12.3401 17.4588 12.3259 17.6788 12.3259 17.8988C12.3259 19.964 12.3259 22.0292 12.3259 24.1015C12.3259 24.7544 12.0633 25.0241 11.4104 25.0241C9.18202 25.0312 6.9607 25.0312 4.73228 25.0241C4.05098 25.0241 3.7813 24.7402 3.7813 24.066C3.76001 22.1428 3.76001 20.2195 3.76001 18.2892Z" fill="#868686"/>
</svg>
