<svg width="21" height="29" viewBox="0 0 21 29" fill="none" xmlns="http://www.w3.org/2000/svg">
<path d="M0.609375 14.8261C0.609375 11.2203 0.609375 7.62272 0.609375 4.0169C0.609375 2.49867 1.57933 1.31048 3.05465 1.02168C3.16061 1.00518 3.27473 0.988678 3.38884 0.988678C6.70626 0.988678 10.0318 0.988678 13.3493 0.988678C13.8791 0.988678 14.2866 1.35999 14.3437 1.85506C14.4007 2.38315 14.1155 2.84522 13.6345 2.96899C13.4878 3.01025 13.333 3.00199 13.1781 3.01025C10.0726 3.01025 6.96709 3.01025 3.85344 3.01025C2.95684 3.01025 2.60635 3.36505 2.60635 4.25619C2.60635 11.3193 2.60635 18.3742 2.60635 25.4373C2.60635 26.3284 2.95684 26.6832 3.85344 26.6832C6.99155 26.6832 10.1297 26.6832 13.2678 26.6832C13.9524 26.6832 14.3763 27.1288 14.3355 27.7806C14.3029 28.2757 13.9198 28.6718 13.4308 28.6965C13.2515 28.7048 13.064 28.7048 12.8847 28.7048C9.78731 28.7048 6.68996 28.7048 3.59261 28.7048C2.10099 28.7048 0.91911 27.7064 0.641979 26.2211C0.609375 26.0066 0.609375 25.7838 0.609375 25.5693C0.609375 21.9882 0.609375 18.4072 0.609375 14.8261Z" fill="#868686"/>
<path d="M16.7645 15.8575C16.5526 15.8575 16.4385 15.8575 16.3162 15.8575C13.39 15.8575 10.472 15.8575 7.54583 15.8575C6.92636 15.8575 6.50251 15.478 6.47806 14.9086C6.4536 14.265 6.87745 13.8442 7.54583 13.8442C10.4802 13.8442 13.4145 13.8442 16.3407 13.8442C16.4466 13.8442 16.5607 13.8442 16.6749 13.8442C16.6749 13.6874 16.5607 13.6297 16.4874 13.5554C15.8761 12.9366 15.2648 12.3177 14.6534 11.6989C14.3518 11.4018 14.2296 11.047 14.3274 10.6344C14.4904 9.97434 15.2647 9.67729 15.8435 10.0486C15.9657 10.1229 16.0635 10.2301 16.1695 10.3291C17.3758 11.5421 18.574 12.755 19.7804 13.9762C20.3835 14.5868 20.3754 15.1314 19.7804 15.7337C18.574 16.9549 17.3595 18.1761 16.1532 19.3973C15.9576 19.5953 15.7457 19.7686 15.4522 19.8016C14.9958 19.8594 14.6045 19.6531 14.4089 19.2653C14.2133 18.8692 14.2703 18.4072 14.5964 18.0689C15.2158 17.4253 15.8435 16.7982 16.4711 16.1628C16.5526 16.0803 16.626 15.9978 16.7645 15.8575Z" fill="#868686"/>
</svg>
