<svg width="23" height="28" viewBox="0 0 23 28" fill="none" xmlns="http://www.w3.org/2000/svg">
<path d="M12.0251 0.479997C12.5245 0.577283 13.0304 0.642141 13.5038 0.843201C15.8712 1.84201 17.324 3.57372 17.6353 6.15507C17.9596 8.86613 16.5197 11.4475 14.0746 12.6409C11.597 13.8472 8.60706 13.3219 6.68726 11.3372C4.61181 9.19691 4.23563 6.02535 5.81168 3.49589C6.84292 1.84201 8.34114 0.817258 10.2999 0.512426C10.3582 0.50594 10.4166 0.486482 10.475 0.473511C10.9873 0.479997 11.5062 0.479997 12.0251 0.479997ZM16.0528 6.86202C16.1565 4.47525 14.107 2.05604 11.2598 2.05604C8.633 2.05604 6.45378 4.18987 6.45378 6.86851C6.44729 9.63794 8.80163 11.6745 11.2598 11.681C13.8346 11.681 16.15 9.44985 16.0528 6.86202Z" fill="#868686"/>
<path d="M11.4287 27.007C9.19105 27.007 6.95994 27.02 4.72234 27.0005C3.67813 26.9876 2.72471 26.6633 1.90102 25.9952C0.921663 25.191 0.428742 24.1273 0.363884 22.8885C0.273083 21.1763 0.448199 19.477 0.928149 17.8231C1.27838 16.6233 1.79725 15.5077 2.70526 14.6256C3.67164 13.6787 4.86503 13.2701 6.20759 13.2636C6.51891 13.2636 6.78482 13.4258 7.04426 13.5814C7.39449 13.7954 7.73824 14.0289 8.08847 14.2495C9.18457 14.9434 10.378 15.3391 11.6881 15.2742C12.7582 15.2223 13.7441 14.8721 14.6586 14.3143C14.9699 14.1262 15.2812 13.9381 15.5666 13.7241C16.1763 13.2571 16.8443 13.2052 17.5772 13.335C19.2181 13.6333 20.3791 14.5608 21.1703 15.9941C21.8967 17.2978 22.208 18.7247 22.3897 20.1904C22.4999 21.0466 22.5064 21.9092 22.4934 22.7718C22.4545 24.951 20.8266 26.7346 18.6668 26.9746C18.3295 27.0135 17.9988 27.0265 17.6615 27.0265C15.5861 27.0135 13.5106 27.0135 11.4287 27.007C11.4287 27.0135 11.4287 27.0135 11.4287 27.007ZM11.4416 25.4245C13.5106 25.4245 15.5861 25.431 17.655 25.4245C18.1804 25.4245 18.7057 25.3791 19.2051 25.1845C20.2818 24.7564 20.9109 23.816 20.9044 22.5578C20.8979 21.7341 20.8849 20.9039 20.7552 20.0802C20.5866 18.9517 20.3466 17.8426 19.7888 16.8243C19.2246 15.7866 18.4268 15.0796 17.214 14.911C16.9351 14.8721 16.6886 14.898 16.4551 15.0667C16.1633 15.2742 15.852 15.4688 15.5471 15.6569C13.3549 16.9929 11.0655 17.2913 8.63976 16.3444C7.82904 16.0266 7.12209 15.5336 6.39568 15.0731C6.20759 14.9564 6.02599 14.8721 5.7925 14.898C5.16337 14.9694 4.57317 15.1575 4.08025 15.5596C3.45112 16.072 3.03603 16.753 2.74417 17.4988C2.06965 19.2435 1.89453 21.0595 1.98533 22.908C2.03722 23.9846 2.7312 24.8602 3.74298 25.2104C4.22942 25.3791 4.7418 25.418 5.24769 25.418C7.31666 25.4245 9.37914 25.4245 11.4416 25.4245Z" fill="#868686"/>
</svg>
